<?xml version="1.0" encoding="UTF-8"?>
<svg xmlns="http://www.w3.org/2000/svg" xmlns:xlink="http://www.w3.org/1999/xlink" width="32px" height="32px" viewBox="0 0 32 32" version="1.1">
<defs>
<clipPath id="clip1">
  <rect x="0" y="0" width="9" height="9"/>
</clipPath>
<g id="surface5" clip-path="url(#clip1)">
<path style=" stroke:none;fill-rule:nonzero;fill:rgb(69.803922%,65.098039%,68.627451%);fill-opacity:1;" d="M -13.523438 -18.519531 L 10.609375 -18.519531 L 10.609375 5.609375 L -13.523438 5.609375 Z M -13.523438 -18.519531 "/>
<path style=" stroke:none;fill-rule:nonzero;fill:rgb(69.803922%,65.098039%,68.627451%);fill-opacity:1;" d="M -13.523438 5.609375 L 10.609375 5.609375 L 10.609375 29.742188 L -13.523438 29.742188 Z M -13.523438 5.609375 "/>
<path style=" stroke:none;fill-rule:nonzero;fill:rgb(98.039216%,95.294118%,88.627451%);fill-opacity:1;" d="M 5.445312 5.003906 L 5.003906 5.445312 C 4.722656 5.71875 4.277344 5.71875 3.996094 5.445312 L 3.554688 5.003906 C 3.28125 4.722656 3.28125 4.277344 3.554688 3.996094 L 3.996094 3.554688 C 4.277344 3.28125 4.722656 3.28125 5.003906 3.554688 L 5.445312 3.996094 C 5.71875 4.277344 5.71875 4.722656 5.445312 5.003906 Z M 5.445312 5.003906 "/>
<path style=" stroke:none;fill-rule:nonzero;fill:rgb(98.039216%,95.294118%,88.627451%);fill-opacity:1;" d="M 0.929688 0.503906 L 0.503906 0.929688 C 0.222656 1.207031 -0.222656 1.207031 -0.503906 0.929688 L -0.929688 0.503906 C -1.207031 0.222656 -1.207031 -0.222656 -0.929688 -0.503906 L -0.503906 -0.929688 C -0.222656 -1.207031 0.222656 -1.207031 0.503906 -0.929688 L 0.929688 -0.503906 C 1.207031 -0.222656 1.207031 0.222656 0.929688 0.503906 Z M 0.929688 0.503906 "/>
<path style=" stroke:none;fill-rule:nonzero;fill:rgb(98.039216%,95.294118%,88.627451%);fill-opacity:1;" d="M 0.929688 9.503906 L 0.503906 9.929688 C 0.222656 10.207031 -0.222656 10.207031 -0.503906 9.929688 L -0.929688 9.503906 C -1.207031 9.222656 -1.207031 8.777344 -0.929688 8.496094 L -0.503906 8.070312 C -0.222656 7.792969 0.222656 7.792969 0.503906 8.070312 L 0.929688 8.496094 C 1.207031 8.777344 1.207031 9.222656 0.929688 9.503906 Z M 0.929688 9.503906 "/>
<path style=" stroke:none;fill-rule:nonzero;fill:rgb(98.039216%,95.294118%,88.627451%);fill-opacity:1;" d="M 9.929688 0.503906 L 9.503906 0.929688 C 9.222656 1.207031 8.777344 1.207031 8.496094 0.929688 L 8.070312 0.503906 C 7.792969 0.222656 7.792969 -0.222656 8.070312 -0.503906 L 8.496094 -0.929688 C 8.777344 -1.207031 9.222656 -1.207031 9.503906 -0.929688 L 9.929688 -0.503906 C 10.207031 -0.222656 10.207031 0.222656 9.929688 0.503906 Z M 9.929688 0.503906 "/>
<path style=" stroke:none;fill-rule:nonzero;fill:rgb(98.039216%,95.294118%,88.627451%);fill-opacity:1;" d="M 9.929688 9.503906 L 9.503906 9.929688 C 9.222656 10.207031 8.777344 10.207031 8.496094 9.929688 L 8.070312 9.503906 C 7.792969 9.222656 7.792969 8.777344 8.070312 8.496094 L 8.496094 8.070312 C 8.777344 7.792969 9.222656 7.792969 9.503906 8.070312 L 9.929688 8.496094 C 10.207031 8.777344 10.207031 9.222656 9.929688 9.503906 Z M 9.929688 9.503906 "/>
</g>
<pattern id="pattern0" patternUnits="userSpaceOnUse" width="9" height="9" patternTransform="matrix(1.031111,0,0,1.031111,-6.208,5.8912)">
<use xlink:href="#surface5"/>
</pattern>
</defs>
<g id="surface1">
<rect x="0" y="0" width="32" height="32" style="fill:url(#pattern0);stroke:none;"/>
</g>
</svg>
