<?xml version="1.0" encoding="UTF-8"?>
<svg xmlns="http://www.w3.org/2000/svg" xmlns:xlink="http://www.w3.org/1999/xlink" width="32px" height="32px" viewBox="0 0 32 32" version="1.1">
<defs>
<clipPath id="clip1">
  <rect x="0" y="0" width="32" height="32"/>
</clipPath>
<g id="surface5" clip-path="url(#clip1)">
<path style="fill:none;stroke-width:1.5;stroke-linecap:butt;stroke-linejoin:miter;stroke:rgb(27.058824%,34.901961%,55.294118%);stroke-opacity:1;stroke-miterlimit:10;" d="M 0 100 L 100 100 " transform="matrix(0.32,0,0,0.32,0,0)"/>
<path style="fill:none;stroke-width:1.5;stroke-linecap:butt;stroke-linejoin:miter;stroke:rgb(27.058824%,34.901961%,55.294118%);stroke-opacity:1;stroke-miterlimit:10;" d="M 0 0 L 100 0 " transform="matrix(0.32,0,0,0.32,0,0)"/>
<path style="fill:none;stroke-width:1.5;stroke-linecap:butt;stroke-linejoin:miter;stroke:rgb(27.058824%,34.901961%,55.294118%);stroke-opacity:1;stroke-miterlimit:10;" d="M 0 6.665039 L 100 6.665039 " transform="matrix(0.32,0,0,0.32,0,0)"/>
<path style="fill:none;stroke-width:1.5;stroke-linecap:butt;stroke-linejoin:miter;stroke:rgb(27.058824%,34.901961%,55.294118%);stroke-opacity:1;stroke-miterlimit:10;" d="M 0 13.330078 L 100 13.330078 " transform="matrix(0.32,0,0,0.32,0,0)"/>
<path style="fill:none;stroke-width:1.5;stroke-linecap:butt;stroke-linejoin:miter;stroke:rgb(27.058824%,34.901961%,55.294118%);stroke-opacity:1;stroke-miterlimit:10;" d="M 0 19.995117 L 100 19.995117 " transform="matrix(0.32,0,0,0.32,0,0)"/>
<path style="fill:none;stroke-width:1.5;stroke-linecap:butt;stroke-linejoin:miter;stroke:rgb(27.058824%,34.901961%,55.294118%);stroke-opacity:1;stroke-miterlimit:10;" d="M 0 26.672363 L 100 26.672363 " transform="matrix(0.32,0,0,0.32,0,0)"/>
<path style="fill:none;stroke-width:1.5;stroke-linecap:butt;stroke-linejoin:miter;stroke:rgb(27.058824%,34.901961%,55.294118%);stroke-opacity:1;stroke-miterlimit:10;" d="M 0 33.325195 L 100 33.325195 " transform="matrix(0.32,0,0,0.32,0,0)"/>
<path style="fill:none;stroke-width:1.5;stroke-linecap:butt;stroke-linejoin:miter;stroke:rgb(27.058824%,34.901961%,55.294118%);stroke-opacity:1;stroke-miterlimit:10;" d="M 0 40.002441 L 100 40.002441 " transform="matrix(0.32,0,0,0.32,0,0)"/>
<path style="fill:none;stroke-width:1.5;stroke-linecap:butt;stroke-linejoin:miter;stroke:rgb(27.058824%,34.901961%,55.294118%);stroke-opacity:1;stroke-miterlimit:10;" d="M 0 46.66748 L 100 46.66748 " transform="matrix(0.32,0,0,0.32,0,0)"/>
<path style="fill:none;stroke-width:1.5;stroke-linecap:butt;stroke-linejoin:miter;stroke:rgb(27.058824%,34.901961%,55.294118%);stroke-opacity:1;stroke-miterlimit:10;" d="M 0 53.33252 L 100 53.33252 " transform="matrix(0.32,0,0,0.32,0,0)"/>
<path style="fill:none;stroke-width:1.5;stroke-linecap:butt;stroke-linejoin:miter;stroke:rgb(27.058824%,34.901961%,55.294118%);stroke-opacity:1;stroke-miterlimit:10;" d="M 0 59.997559 L 100 59.997559 " transform="matrix(0.32,0,0,0.32,0,0)"/>
<path style="fill:none;stroke-width:1.5;stroke-linecap:butt;stroke-linejoin:miter;stroke:rgb(27.058824%,34.901961%,55.294118%);stroke-opacity:1;stroke-miterlimit:10;" d="M 0 66.674805 L 100 66.674805 " transform="matrix(0.32,0,0,0.32,0,0)"/>
<path style="fill:none;stroke-width:1.5;stroke-linecap:butt;stroke-linejoin:miter;stroke:rgb(27.058824%,34.901961%,55.294118%);stroke-opacity:1;stroke-miterlimit:10;" d="M 0 73.327637 L 100 73.327637 " transform="matrix(0.32,0,0,0.32,0,0)"/>
<path style="fill:none;stroke-width:1.5;stroke-linecap:butt;stroke-linejoin:miter;stroke:rgb(27.058824%,34.901961%,55.294118%);stroke-opacity:1;stroke-miterlimit:10;" d="M 0 80.004883 L 100 80.004883 " transform="matrix(0.32,0,0,0.32,0,0)"/>
<path style="fill:none;stroke-width:1.5;stroke-linecap:butt;stroke-linejoin:miter;stroke:rgb(27.058824%,34.901961%,55.294118%);stroke-opacity:1;stroke-miterlimit:10;" d="M 0 86.669922 L 100 86.669922 " transform="matrix(0.32,0,0,0.32,0,0)"/>
<path style="fill:none;stroke-width:1.5;stroke-linecap:butt;stroke-linejoin:miter;stroke:rgb(27.058824%,34.901961%,55.294118%);stroke-opacity:1;stroke-miterlimit:10;" d="M 0 93.334961 L 100 93.334961 " transform="matrix(0.32,0,0,0.32,0,0)"/>
<path style="fill:none;stroke-width:1.5;stroke-linecap:butt;stroke-linejoin:miter;stroke:rgb(27.058824%,34.901961%,55.294118%);stroke-opacity:1;stroke-miterlimit:10;" d="M 0 100 L 100 100 " transform="matrix(0.32,0,0,0.32,0,0)"/>
<path style="fill:none;stroke-width:1.5;stroke-linecap:butt;stroke-linejoin:miter;stroke:rgb(27.058824%,34.901961%,55.294118%);stroke-opacity:1;stroke-miterlimit:10;" d="M 0 0 L 100 0 " transform="matrix(0.32,0,0,0.32,0,0)"/>
</g>
<pattern id="pattern0" patternUnits="userSpaceOnUse" width="32" height="32" patternTransform="matrix(1,0,0,1,56.6912,43.4048)">
<use xlink:href="#surface5"/>
</pattern>
</defs>
<g id="surface1">
<rect x="0" y="0" width="32" height="32" style="fill:url(#pattern0);stroke:none;"/>
</g>
</svg>
