<?xml version="1.0" encoding="UTF-8"?>
<svg xmlns="http://www.w3.org/2000/svg" xmlns:xlink="http://www.w3.org/1999/xlink" width="32px" height="32px" viewBox="0 0 32 32" version="1.1">
<defs>
<clipPath id="clip1">
  <rect x="0" y="0" width="32" height="32"/>
</clipPath>
<g id="surface5" clip-path="url(#clip1)">
<path style="fill:none;stroke-width:1.5;stroke-linecap:butt;stroke-linejoin:miter;stroke:rgb(31.764706%,25.098039%,19.215686%);stroke-opacity:1;stroke-miterlimit:10;" d="M 0 0 L 100 0 " transform="matrix(0.32,0,0,0.32,0,0)"/>
<path style="fill:none;stroke-width:1.5;stroke-linecap:butt;stroke-linejoin:miter;stroke:rgb(31.764706%,25.098039%,19.215686%);stroke-opacity:1;stroke-miterlimit:10;" d="M 0 4.345703 L 100 4.345703 " transform="matrix(0.32,0,0,0.32,0,0)"/>
<path style="fill:none;stroke-width:1.5;stroke-linecap:butt;stroke-linejoin:miter;stroke:rgb(31.764706%,25.098039%,19.215686%);stroke-opacity:1;stroke-miterlimit:10;" d="M 0 8.703613 L 100 8.703613 " transform="matrix(0.32,0,0,0.32,0,0)"/>
<path style="fill:none;stroke-width:1.5;stroke-linecap:butt;stroke-linejoin:miter;stroke:rgb(31.764706%,25.098039%,19.215686%);stroke-opacity:1;stroke-miterlimit:10;" d="M 0 13.037109 L 100 13.037109 " transform="matrix(0.32,0,0,0.32,0,0)"/>
<path style="fill:none;stroke-width:1.5;stroke-linecap:butt;stroke-linejoin:miter;stroke:rgb(31.764706%,25.098039%,19.215686%);stroke-opacity:1;stroke-miterlimit:10;" d="M 0 17.39502 L 100 17.39502 " transform="matrix(0.32,0,0,0.32,0,0)"/>
<path style="fill:none;stroke-width:1.5;stroke-linecap:butt;stroke-linejoin:miter;stroke:rgb(31.764706%,25.098039%,19.215686%);stroke-opacity:1;stroke-miterlimit:10;" d="M 0 21.740723 L 100 21.740723 " transform="matrix(0.32,0,0,0.32,0,0)"/>
<path style="fill:none;stroke-width:1.5;stroke-linecap:butt;stroke-linejoin:miter;stroke:rgb(31.764706%,25.098039%,19.215686%);stroke-opacity:1;stroke-miterlimit:10;" d="M 0 26.086426 L 100 26.086426 " transform="matrix(0.32,0,0,0.32,0,0)"/>
<path style="fill:none;stroke-width:1.5;stroke-linecap:butt;stroke-linejoin:miter;stroke:rgb(31.764706%,25.098039%,19.215686%);stroke-opacity:1;stroke-miterlimit:10;" d="M 0 30.432129 L 100 30.432129 " transform="matrix(0.32,0,0,0.32,0,0)"/>
<path style="fill:none;stroke-width:1.5;stroke-linecap:butt;stroke-linejoin:miter;stroke:rgb(31.764706%,25.098039%,19.215686%);stroke-opacity:1;stroke-miterlimit:10;" d="M 0 34.777832 L 100 34.777832 " transform="matrix(0.32,0,0,0.32,0,0)"/>
<path style="fill:none;stroke-width:1.5;stroke-linecap:butt;stroke-linejoin:miter;stroke:rgb(31.764706%,25.098039%,19.215686%);stroke-opacity:1;stroke-miterlimit:10;" d="M 0 39.135742 L 100 39.135742 " transform="matrix(0.32,0,0,0.32,0,0)"/>
<path style="fill:none;stroke-width:1.5;stroke-linecap:butt;stroke-linejoin:miter;stroke:rgb(31.764706%,25.098039%,19.215686%);stroke-opacity:1;stroke-miterlimit:10;" d="M 0 43.481445 L 100 43.481445 " transform="matrix(0.32,0,0,0.32,0,0)"/>
<path style="fill:none;stroke-width:1.5;stroke-linecap:butt;stroke-linejoin:miter;stroke:rgb(31.764706%,25.098039%,19.215686%);stroke-opacity:1;stroke-miterlimit:10;" d="M 0 47.827148 L 100 47.827148 " transform="matrix(0.32,0,0,0.32,0,0)"/>
<path style="fill:none;stroke-width:1.5;stroke-linecap:butt;stroke-linejoin:miter;stroke:rgb(31.764706%,25.098039%,19.215686%);stroke-opacity:1;stroke-miterlimit:10;" d="M 0 52.172852 L 100 52.172852 " transform="matrix(0.32,0,0,0.32,0,0)"/>
<path style="fill:none;stroke-width:1.5;stroke-linecap:butt;stroke-linejoin:miter;stroke:rgb(31.764706%,25.098039%,19.215686%);stroke-opacity:1;stroke-miterlimit:10;" d="M 0 56.518555 L 100 56.518555 " transform="matrix(0.32,0,0,0.32,0,0)"/>
<path style="fill:none;stroke-width:1.5;stroke-linecap:butt;stroke-linejoin:miter;stroke:rgb(31.764706%,25.098039%,19.215686%);stroke-opacity:1;stroke-miterlimit:10;" d="M 0 60.864258 L 100 60.864258 " transform="matrix(0.32,0,0,0.32,0,0)"/>
<path style="fill:none;stroke-width:1.5;stroke-linecap:butt;stroke-linejoin:miter;stroke:rgb(31.764706%,25.098039%,19.215686%);stroke-opacity:1;stroke-miterlimit:10;" d="M 0 65.222168 L 100 65.222168 " transform="matrix(0.32,0,0,0.32,0,0)"/>
<path style="fill:none;stroke-width:1.5;stroke-linecap:butt;stroke-linejoin:miter;stroke:rgb(31.764706%,25.098039%,19.215686%);stroke-opacity:1;stroke-miterlimit:10;" d="M 0 69.567871 L 100 69.567871 " transform="matrix(0.32,0,0,0.32,0,0)"/>
<path style="fill:none;stroke-width:1.5;stroke-linecap:butt;stroke-linejoin:miter;stroke:rgb(31.764706%,25.098039%,19.215686%);stroke-opacity:1;stroke-miterlimit:10;" d="M 0 73.913574 L 100 73.913574 " transform="matrix(0.32,0,0,0.32,0,0)"/>
<path style="fill:none;stroke-width:1.5;stroke-linecap:butt;stroke-linejoin:miter;stroke:rgb(31.764706%,25.098039%,19.215686%);stroke-opacity:1;stroke-miterlimit:10;" d="M 0 78.259277 L 100 78.259277 " transform="matrix(0.32,0,0,0.32,0,0)"/>
<path style="fill:none;stroke-width:1.5;stroke-linecap:butt;stroke-linejoin:miter;stroke:rgb(31.764706%,25.098039%,19.215686%);stroke-opacity:1;stroke-miterlimit:10;" d="M 0 82.60498 L 100 82.60498 " transform="matrix(0.32,0,0,0.32,0,0)"/>
<path style="fill:none;stroke-width:1.5;stroke-linecap:butt;stroke-linejoin:miter;stroke:rgb(31.764706%,25.098039%,19.215686%);stroke-opacity:1;stroke-miterlimit:10;" d="M 0 86.962891 L 100 86.962891 " transform="matrix(0.32,0,0,0.32,0,0)"/>
<path style="fill:none;stroke-width:1.5;stroke-linecap:butt;stroke-linejoin:miter;stroke:rgb(31.764706%,25.098039%,19.215686%);stroke-opacity:1;stroke-miterlimit:10;" d="M 0 91.296387 L 100 91.296387 " transform="matrix(0.32,0,0,0.32,0,0)"/>
<path style="fill:none;stroke-width:1.5;stroke-linecap:butt;stroke-linejoin:miter;stroke:rgb(31.764706%,25.098039%,19.215686%);stroke-opacity:1;stroke-miterlimit:10;" d="M 0 95.654297 L 100 95.654297 " transform="matrix(0.32,0,0,0.32,0,0)"/>
<path style="fill:none;stroke-width:1.5;stroke-linecap:butt;stroke-linejoin:miter;stroke:rgb(31.764706%,25.098039%,19.215686%);stroke-opacity:1;stroke-miterlimit:10;" d="M 0 100 L 100 100 " transform="matrix(0.32,0,0,0.32,0,0)"/>
<path style="fill:none;stroke-width:1.5;stroke-linecap:butt;stroke-linejoin:miter;stroke:rgb(31.764706%,25.098039%,19.215686%);stroke-opacity:1;stroke-miterlimit:10;" d="M 0 100 L 0 0 " transform="matrix(0.32,0,0,0.32,0,0)"/>
<path style="fill:none;stroke-width:1.5;stroke-linecap:butt;stroke-linejoin:miter;stroke:rgb(31.764706%,25.098039%,19.215686%);stroke-opacity:1;stroke-miterlimit:10;" d="M 4.345703 100 L 4.345703 0 " transform="matrix(0.32,0,0,0.32,0,0)"/>
<path style="fill:none;stroke-width:1.5;stroke-linecap:butt;stroke-linejoin:miter;stroke:rgb(31.764706%,25.098039%,19.215686%);stroke-opacity:1;stroke-miterlimit:10;" d="M 8.703613 100 L 8.703613 0 " transform="matrix(0.32,0,0,0.32,0,0)"/>
<path style="fill:none;stroke-width:1.5;stroke-linecap:butt;stroke-linejoin:miter;stroke:rgb(31.764706%,25.098039%,19.215686%);stroke-opacity:1;stroke-miterlimit:10;" d="M 13.037109 100 L 13.037109 0 " transform="matrix(0.32,0,0,0.32,0,0)"/>
<path style="fill:none;stroke-width:1.5;stroke-linecap:butt;stroke-linejoin:miter;stroke:rgb(31.764706%,25.098039%,19.215686%);stroke-opacity:1;stroke-miterlimit:10;" d="M 17.39502 100 L 17.39502 0 " transform="matrix(0.32,0,0,0.32,0,0)"/>
<path style="fill:none;stroke-width:1.5;stroke-linecap:butt;stroke-linejoin:miter;stroke:rgb(31.764706%,25.098039%,19.215686%);stroke-opacity:1;stroke-miterlimit:10;" d="M 21.740723 100 L 21.740723 0 " transform="matrix(0.32,0,0,0.32,0,0)"/>
<path style="fill:none;stroke-width:1.5;stroke-linecap:butt;stroke-linejoin:miter;stroke:rgb(31.764706%,25.098039%,19.215686%);stroke-opacity:1;stroke-miterlimit:10;" d="M 26.086426 100 L 26.086426 0 " transform="matrix(0.32,0,0,0.32,0,0)"/>
<path style="fill:none;stroke-width:1.5;stroke-linecap:butt;stroke-linejoin:miter;stroke:rgb(31.764706%,25.098039%,19.215686%);stroke-opacity:1;stroke-miterlimit:10;" d="M 30.432129 100 L 30.432129 0 " transform="matrix(0.32,0,0,0.32,0,0)"/>
<path style="fill:none;stroke-width:1.5;stroke-linecap:butt;stroke-linejoin:miter;stroke:rgb(31.764706%,25.098039%,19.215686%);stroke-opacity:1;stroke-miterlimit:10;" d="M 34.777832 100 L 34.777832 0 " transform="matrix(0.32,0,0,0.32,0,0)"/>
<path style="fill:none;stroke-width:1.5;stroke-linecap:butt;stroke-linejoin:miter;stroke:rgb(31.764706%,25.098039%,19.215686%);stroke-opacity:1;stroke-miterlimit:10;" d="M 39.135742 100 L 39.135742 0 " transform="matrix(0.32,0,0,0.32,0,0)"/>
<path style="fill:none;stroke-width:1.5;stroke-linecap:butt;stroke-linejoin:miter;stroke:rgb(31.764706%,25.098039%,19.215686%);stroke-opacity:1;stroke-miterlimit:10;" d="M 43.481445 100 L 43.481445 0 " transform="matrix(0.32,0,0,0.32,0,0)"/>
<path style="fill:none;stroke-width:1.5;stroke-linecap:butt;stroke-linejoin:miter;stroke:rgb(31.764706%,25.098039%,19.215686%);stroke-opacity:1;stroke-miterlimit:10;" d="M 47.827148 100 L 47.827148 0 " transform="matrix(0.32,0,0,0.32,0,0)"/>
<path style="fill:none;stroke-width:1.5;stroke-linecap:butt;stroke-linejoin:miter;stroke:rgb(31.764706%,25.098039%,19.215686%);stroke-opacity:1;stroke-miterlimit:10;" d="M 52.172852 100 L 52.172852 0 " transform="matrix(0.32,0,0,0.32,0,0)"/>
<path style="fill:none;stroke-width:1.5;stroke-linecap:butt;stroke-linejoin:miter;stroke:rgb(31.764706%,25.098039%,19.215686%);stroke-opacity:1;stroke-miterlimit:10;" d="M 56.518555 100 L 56.518555 0 " transform="matrix(0.32,0,0,0.32,0,0)"/>
<path style="fill:none;stroke-width:1.5;stroke-linecap:butt;stroke-linejoin:miter;stroke:rgb(31.764706%,25.098039%,19.215686%);stroke-opacity:1;stroke-miterlimit:10;" d="M 60.864258 100 L 60.864258 0 " transform="matrix(0.32,0,0,0.32,0,0)"/>
<path style="fill:none;stroke-width:1.5;stroke-linecap:butt;stroke-linejoin:miter;stroke:rgb(31.764706%,25.098039%,19.215686%);stroke-opacity:1;stroke-miterlimit:10;" d="M 65.222168 100 L 65.222168 0 " transform="matrix(0.32,0,0,0.32,0,0)"/>
<path style="fill:none;stroke-width:1.5;stroke-linecap:butt;stroke-linejoin:miter;stroke:rgb(31.764706%,25.098039%,19.215686%);stroke-opacity:1;stroke-miterlimit:10;" d="M 69.567871 100 L 69.567871 0 " transform="matrix(0.32,0,0,0.32,0,0)"/>
<path style="fill:none;stroke-width:1.5;stroke-linecap:butt;stroke-linejoin:miter;stroke:rgb(31.764706%,25.098039%,19.215686%);stroke-opacity:1;stroke-miterlimit:10;" d="M 73.913574 100 L 73.913574 0 " transform="matrix(0.32,0,0,0.32,0,0)"/>
<path style="fill:none;stroke-width:1.5;stroke-linecap:butt;stroke-linejoin:miter;stroke:rgb(31.764706%,25.098039%,19.215686%);stroke-opacity:1;stroke-miterlimit:10;" d="M 78.259277 100 L 78.259277 0 " transform="matrix(0.32,0,0,0.32,0,0)"/>
<path style="fill:none;stroke-width:1.5;stroke-linecap:butt;stroke-linejoin:miter;stroke:rgb(31.764706%,25.098039%,19.215686%);stroke-opacity:1;stroke-miterlimit:10;" d="M 82.60498 100 L 82.60498 0 " transform="matrix(0.32,0,0,0.32,0,0)"/>
<path style="fill:none;stroke-width:1.5;stroke-linecap:butt;stroke-linejoin:miter;stroke:rgb(31.764706%,25.098039%,19.215686%);stroke-opacity:1;stroke-miterlimit:10;" d="M 86.962891 100 L 86.962891 0 " transform="matrix(0.32,0,0,0.32,0,0)"/>
<path style="fill:none;stroke-width:1.5;stroke-linecap:butt;stroke-linejoin:miter;stroke:rgb(31.764706%,25.098039%,19.215686%);stroke-opacity:1;stroke-miterlimit:10;" d="M 91.296387 100 L 91.296387 0 " transform="matrix(0.32,0,0,0.32,0,0)"/>
<path style="fill:none;stroke-width:1.5;stroke-linecap:butt;stroke-linejoin:miter;stroke:rgb(31.764706%,25.098039%,19.215686%);stroke-opacity:1;stroke-miterlimit:10;" d="M 95.654297 100 L 95.654297 0 " transform="matrix(0.32,0,0,0.32,0,0)"/>
<path style="fill:none;stroke-width:1.5;stroke-linecap:butt;stroke-linejoin:miter;stroke:rgb(31.764706%,25.098039%,19.215686%);stroke-opacity:1;stroke-miterlimit:10;" d="M 100 100 L 100 0 " transform="matrix(0.32,0,0,0.32,0,0)"/>
</g>
<pattern id="pattern0" patternUnits="userSpaceOnUse" width="32" height="32" patternTransform="matrix(1,0,0,1,27.7504,6.4704)">
<use xlink:href="#surface5"/>
</pattern>
</defs>
<g id="surface1">
<rect x="0" y="0" width="32" height="32" style="fill:url(#pattern0);stroke:none;"/>
</g>
</svg>
