<?xml version="1.0" encoding="UTF-8"?>
<svg xmlns="http://www.w3.org/2000/svg" xmlns:xlink="http://www.w3.org/1999/xlink" width="32px" height="32px" viewBox="0 0 32 32" version="1.1">
<defs>
<clipPath id="clip1">
  <rect x="0" y="0" width="32" height="32"/>
</clipPath>
<g id="surface5" clip-path="url(#clip1)">
<path style="fill:none;stroke-width:1.5;stroke-linecap:butt;stroke-linejoin:miter;stroke:rgb(29.411765%,15.686275%,7.843137%);stroke-opacity:1;stroke-miterlimit:10;" d="M 46.972656 -53.027344 L 153.027344 53.027344 " transform="matrix(0.32,0,0,0.32,0,0)"/>
<path style="fill:none;stroke-width:1.5;stroke-linecap:butt;stroke-linejoin:miter;stroke:rgb(29.411765%,15.686275%,7.843137%);stroke-opacity:1;stroke-miterlimit:10;" d="M 40.722656 -46.777344 L 146.777344 59.277344 " transform="matrix(0.32,0,0,0.32,0,0)"/>
<path style="fill:none;stroke-width:1.5;stroke-linecap:butt;stroke-linejoin:miter;stroke:rgb(29.411765%,15.686275%,7.843137%);stroke-opacity:1;stroke-miterlimit:10;" d="M 34.472656 -40.527344 L 140.527344 65.527344 " transform="matrix(0.32,0,0,0.32,0,0)"/>
<path style="fill:none;stroke-width:1.5;stroke-linecap:butt;stroke-linejoin:miter;stroke:rgb(29.411765%,15.686275%,7.843137%);stroke-opacity:1;stroke-miterlimit:10;" d="M 28.222656 -34.277344 L 134.277344 71.777344 " transform="matrix(0.32,0,0,0.32,0,0)"/>
<path style="fill:none;stroke-width:1.5;stroke-linecap:butt;stroke-linejoin:miter;stroke:rgb(29.411765%,15.686275%,7.843137%);stroke-opacity:1;stroke-miterlimit:10;" d="M 21.972656 -28.027344 L 128.027344 78.027344 " transform="matrix(0.32,0,0,0.32,0,0)"/>
<path style="fill:none;stroke-width:1.5;stroke-linecap:butt;stroke-linejoin:miter;stroke:rgb(29.411765%,15.686275%,7.843137%);stroke-opacity:1;stroke-miterlimit:10;" d="M 15.722656 -21.777344 L 121.777344 84.277344 " transform="matrix(0.32,0,0,0.32,0,0)"/>
<path style="fill:none;stroke-width:1.5;stroke-linecap:butt;stroke-linejoin:miter;stroke:rgb(29.411765%,15.686275%,7.843137%);stroke-opacity:1;stroke-miterlimit:10;" d="M 9.472656 -15.527344 L 115.527344 90.527344 " transform="matrix(0.32,0,0,0.32,0,0)"/>
<path style="fill:none;stroke-width:1.5;stroke-linecap:butt;stroke-linejoin:miter;stroke:rgb(29.411765%,15.686275%,7.843137%);stroke-opacity:1;stroke-miterlimit:10;" d="M 3.222656 -9.277344 L 109.277344 96.777344 " transform="matrix(0.32,0,0,0.32,0,0)"/>
<path style="fill:none;stroke-width:1.5;stroke-linecap:butt;stroke-linejoin:miter;stroke:rgb(29.411765%,15.686275%,7.843137%);stroke-opacity:1;stroke-miterlimit:10;" d="M -3.027344 -3.027344 L 103.027344 103.027344 " transform="matrix(0.32,0,0,0.32,0,0)"/>
<path style="fill:none;stroke-width:1.5;stroke-linecap:butt;stroke-linejoin:miter;stroke:rgb(29.411765%,15.686275%,7.843137%);stroke-opacity:1;stroke-miterlimit:10;" d="M -9.277344 3.222656 L 96.777344 109.277344 " transform="matrix(0.32,0,0,0.32,0,0)"/>
<path style="fill:none;stroke-width:1.5;stroke-linecap:butt;stroke-linejoin:miter;stroke:rgb(29.411765%,15.686275%,7.843137%);stroke-opacity:1;stroke-miterlimit:10;" d="M -15.527344 9.472656 L 90.527344 115.527344 " transform="matrix(0.32,0,0,0.32,0,0)"/>
<path style="fill:none;stroke-width:1.5;stroke-linecap:butt;stroke-linejoin:miter;stroke:rgb(29.411765%,15.686275%,7.843137%);stroke-opacity:1;stroke-miterlimit:10;" d="M -21.777344 15.722656 L 84.277344 121.777344 " transform="matrix(0.32,0,0,0.32,0,0)"/>
<path style="fill:none;stroke-width:1.5;stroke-linecap:butt;stroke-linejoin:miter;stroke:rgb(29.411765%,15.686275%,7.843137%);stroke-opacity:1;stroke-miterlimit:10;" d="M -28.027344 21.972656 L 78.027344 128.027344 " transform="matrix(0.32,0,0,0.32,0,0)"/>
<path style="fill:none;stroke-width:1.5;stroke-linecap:butt;stroke-linejoin:miter;stroke:rgb(29.411765%,15.686275%,7.843137%);stroke-opacity:1;stroke-miterlimit:10;" d="M -34.277344 28.222656 L 71.777344 134.277344 " transform="matrix(0.32,0,0,0.32,0,0)"/>
<path style="fill:none;stroke-width:1.5;stroke-linecap:butt;stroke-linejoin:miter;stroke:rgb(29.411765%,15.686275%,7.843137%);stroke-opacity:1;stroke-miterlimit:10;" d="M -40.527344 34.472656 L 65.527344 140.527344 " transform="matrix(0.32,0,0,0.32,0,0)"/>
<path style="fill:none;stroke-width:1.5;stroke-linecap:butt;stroke-linejoin:miter;stroke:rgb(29.411765%,15.686275%,7.843137%);stroke-opacity:1;stroke-miterlimit:10;" d="M -46.777344 40.722656 L 59.277344 146.777344 " transform="matrix(0.32,0,0,0.32,0,0)"/>
<path style="fill:none;stroke-width:1.5;stroke-linecap:butt;stroke-linejoin:miter;stroke:rgb(29.411765%,15.686275%,7.843137%);stroke-opacity:1;stroke-miterlimit:10;" d="M -53.027344 46.972656 L 53.027344 153.027344 " transform="matrix(0.32,0,0,0.32,0,0)"/>
</g>
<pattern id="pattern0" patternUnits="userSpaceOnUse" width="32" height="32" patternTransform="matrix(1,0,0,1,-26.0512,-18.8352)">
<use xlink:href="#surface5"/>
</pattern>
</defs>
<g id="surface1">
<rect x="0" y="0" width="32" height="32" style="fill:url(#pattern0);stroke:none;"/>
</g>
</svg>
