<?xml version="1.0" encoding="UTF-8"?>
<svg xmlns="http://www.w3.org/2000/svg" xmlns:xlink="http://www.w3.org/1999/xlink" width="32px" height="32px" viewBox="0 0 32 32" version="1.1">
<defs>
<clipPath id="clip1">
  <rect x="0" y="0" width="32" height="32"/>
</clipPath>
<g id="surface5" clip-path="url(#clip1)">
<path style="fill:none;stroke-width:1.5;stroke-linecap:butt;stroke-linejoin:miter;stroke:rgb(45.098039%,49.411765%,49.411765%);stroke-opacity:1;stroke-miterlimit:10;" d="M 46.972656 -53.027344 L 153.027344 53.027344 " transform="matrix(0.32,0,0,0.32,0,0)"/>
<path style="fill:none;stroke-width:1.5;stroke-linecap:butt;stroke-linejoin:miter;stroke:rgb(45.098039%,49.411765%,49.411765%);stroke-opacity:1;stroke-miterlimit:10;" d="M 43.835449 -49.914551 L 149.914551 56.164551 " transform="matrix(0.32,0,0,0.32,0,0)"/>
<path style="fill:none;stroke-width:1.5;stroke-linecap:butt;stroke-linejoin:miter;stroke:rgb(45.098039%,49.411765%,49.411765%);stroke-opacity:1;stroke-miterlimit:10;" d="M 40.722656 -46.777344 L 146.777344 59.277344 " transform="matrix(0.32,0,0,0.32,0,0)"/>
<path style="fill:none;stroke-width:1.5;stroke-linecap:butt;stroke-linejoin:miter;stroke:rgb(45.098039%,49.411765%,49.411765%);stroke-opacity:1;stroke-miterlimit:10;" d="M 37.585449 -43.664551 L 143.664551 62.414551 " transform="matrix(0.32,0,0,0.32,0,0)"/>
<path style="fill:none;stroke-width:1.5;stroke-linecap:butt;stroke-linejoin:miter;stroke:rgb(45.098039%,49.411765%,49.411765%);stroke-opacity:1;stroke-miterlimit:10;" d="M 34.472656 -40.527344 L 140.527344 65.527344 " transform="matrix(0.32,0,0,0.32,0,0)"/>
<path style="fill:none;stroke-width:1.5;stroke-linecap:butt;stroke-linejoin:miter;stroke:rgb(45.098039%,49.411765%,49.411765%);stroke-opacity:1;stroke-miterlimit:10;" d="M 31.335449 -37.414551 L 137.414551 68.664551 " transform="matrix(0.32,0,0,0.32,0,0)"/>
<path style="fill:none;stroke-width:1.5;stroke-linecap:butt;stroke-linejoin:miter;stroke:rgb(45.098039%,49.411765%,49.411765%);stroke-opacity:1;stroke-miterlimit:10;" d="M 28.222656 -34.277344 L 134.277344 71.777344 " transform="matrix(0.32,0,0,0.32,0,0)"/>
<path style="fill:none;stroke-width:1.5;stroke-linecap:butt;stroke-linejoin:miter;stroke:rgb(45.098039%,49.411765%,49.411765%);stroke-opacity:1;stroke-miterlimit:10;" d="M 25.085449 -31.164551 L 131.164551 74.914551 " transform="matrix(0.32,0,0,0.32,0,0)"/>
<path style="fill:none;stroke-width:1.5;stroke-linecap:butt;stroke-linejoin:miter;stroke:rgb(45.098039%,49.411765%,49.411765%);stroke-opacity:1;stroke-miterlimit:10;" d="M 21.972656 -28.027344 L 128.027344 78.027344 " transform="matrix(0.32,0,0,0.32,0,0)"/>
<path style="fill:none;stroke-width:1.5;stroke-linecap:butt;stroke-linejoin:miter;stroke:rgb(45.098039%,49.411765%,49.411765%);stroke-opacity:1;stroke-miterlimit:10;" d="M 18.835449 -24.914551 L 124.914551 81.164551 " transform="matrix(0.32,0,0,0.32,0,0)"/>
<path style="fill:none;stroke-width:1.5;stroke-linecap:butt;stroke-linejoin:miter;stroke:rgb(45.098039%,49.411765%,49.411765%);stroke-opacity:1;stroke-miterlimit:10;" d="M 15.722656 -21.777344 L 121.777344 84.277344 " transform="matrix(0.32,0,0,0.32,0,0)"/>
<path style="fill:none;stroke-width:1.5;stroke-linecap:butt;stroke-linejoin:miter;stroke:rgb(45.098039%,49.411765%,49.411765%);stroke-opacity:1;stroke-miterlimit:10;" d="M 12.585449 -18.664551 L 118.664551 87.414551 " transform="matrix(0.32,0,0,0.32,0,0)"/>
<path style="fill:none;stroke-width:1.5;stroke-linecap:butt;stroke-linejoin:miter;stroke:rgb(45.098039%,49.411765%,49.411765%);stroke-opacity:1;stroke-miterlimit:10;" d="M 9.472656 -15.527344 L 115.527344 90.527344 " transform="matrix(0.32,0,0,0.32,0,0)"/>
<path style="fill:none;stroke-width:1.5;stroke-linecap:butt;stroke-linejoin:miter;stroke:rgb(45.098039%,49.411765%,49.411765%);stroke-opacity:1;stroke-miterlimit:10;" d="M 6.335449 -12.414551 L 112.414551 93.664551 " transform="matrix(0.32,0,0,0.32,0,0)"/>
<path style="fill:none;stroke-width:1.5;stroke-linecap:butt;stroke-linejoin:miter;stroke:rgb(45.098039%,49.411765%,49.411765%);stroke-opacity:1;stroke-miterlimit:10;" d="M 3.222656 -9.277344 L 109.277344 96.777344 " transform="matrix(0.32,0,0,0.32,0,0)"/>
<path style="fill:none;stroke-width:1.5;stroke-linecap:butt;stroke-linejoin:miter;stroke:rgb(45.098039%,49.411765%,49.411765%);stroke-opacity:1;stroke-miterlimit:10;" d="M 0.0854492 -6.164551 L 106.164551 99.914551 " transform="matrix(0.32,0,0,0.32,0,0)"/>
<path style="fill:none;stroke-width:1.5;stroke-linecap:butt;stroke-linejoin:miter;stroke:rgb(45.098039%,49.411765%,49.411765%);stroke-opacity:1;stroke-miterlimit:10;" d="M -3.027344 -3.027344 L 103.027344 103.027344 " transform="matrix(0.32,0,0,0.32,0,0)"/>
<path style="fill:none;stroke-width:1.5;stroke-linecap:butt;stroke-linejoin:miter;stroke:rgb(45.098039%,49.411765%,49.411765%);stroke-opacity:1;stroke-miterlimit:10;" d="M -6.164551 0.0854492 L 99.914551 106.164551 " transform="matrix(0.32,0,0,0.32,0,0)"/>
<path style="fill:none;stroke-width:1.5;stroke-linecap:butt;stroke-linejoin:miter;stroke:rgb(45.098039%,49.411765%,49.411765%);stroke-opacity:1;stroke-miterlimit:10;" d="M -9.277344 3.222656 L 96.777344 109.277344 " transform="matrix(0.32,0,0,0.32,0,0)"/>
<path style="fill:none;stroke-width:1.5;stroke-linecap:butt;stroke-linejoin:miter;stroke:rgb(45.098039%,49.411765%,49.411765%);stroke-opacity:1;stroke-miterlimit:10;" d="M -12.414551 6.335449 L 93.664551 112.414551 " transform="matrix(0.32,0,0,0.32,0,0)"/>
<path style="fill:none;stroke-width:1.5;stroke-linecap:butt;stroke-linejoin:miter;stroke:rgb(45.098039%,49.411765%,49.411765%);stroke-opacity:1;stroke-miterlimit:10;" d="M -15.527344 9.472656 L 90.527344 115.527344 " transform="matrix(0.32,0,0,0.32,0,0)"/>
<path style="fill:none;stroke-width:1.5;stroke-linecap:butt;stroke-linejoin:miter;stroke:rgb(45.098039%,49.411765%,49.411765%);stroke-opacity:1;stroke-miterlimit:10;" d="M -18.664551 12.585449 L 87.414551 118.664551 " transform="matrix(0.32,0,0,0.32,0,0)"/>
<path style="fill:none;stroke-width:1.5;stroke-linecap:butt;stroke-linejoin:miter;stroke:rgb(45.098039%,49.411765%,49.411765%);stroke-opacity:1;stroke-miterlimit:10;" d="M -21.777344 15.722656 L 84.277344 121.777344 " transform="matrix(0.32,0,0,0.32,0,0)"/>
<path style="fill:none;stroke-width:1.5;stroke-linecap:butt;stroke-linejoin:miter;stroke:rgb(45.098039%,49.411765%,49.411765%);stroke-opacity:1;stroke-miterlimit:10;" d="M -24.914551 18.835449 L 81.164551 124.914551 " transform="matrix(0.32,0,0,0.32,0,0)"/>
<path style="fill:none;stroke-width:1.5;stroke-linecap:butt;stroke-linejoin:miter;stroke:rgb(45.098039%,49.411765%,49.411765%);stroke-opacity:1;stroke-miterlimit:10;" d="M -28.027344 21.972656 L 78.027344 128.027344 " transform="matrix(0.32,0,0,0.32,0,0)"/>
<path style="fill:none;stroke-width:1.5;stroke-linecap:butt;stroke-linejoin:miter;stroke:rgb(45.098039%,49.411765%,49.411765%);stroke-opacity:1;stroke-miterlimit:10;" d="M -31.164551 25.085449 L 74.914551 131.164551 " transform="matrix(0.32,0,0,0.32,0,0)"/>
<path style="fill:none;stroke-width:1.5;stroke-linecap:butt;stroke-linejoin:miter;stroke:rgb(45.098039%,49.411765%,49.411765%);stroke-opacity:1;stroke-miterlimit:10;" d="M -34.277344 28.222656 L 71.777344 134.277344 " transform="matrix(0.32,0,0,0.32,0,0)"/>
<path style="fill:none;stroke-width:1.5;stroke-linecap:butt;stroke-linejoin:miter;stroke:rgb(45.098039%,49.411765%,49.411765%);stroke-opacity:1;stroke-miterlimit:10;" d="M -37.414551 31.335449 L 68.664551 137.414551 " transform="matrix(0.32,0,0,0.32,0,0)"/>
<path style="fill:none;stroke-width:1.5;stroke-linecap:butt;stroke-linejoin:miter;stroke:rgb(45.098039%,49.411765%,49.411765%);stroke-opacity:1;stroke-miterlimit:10;" d="M -40.527344 34.472656 L 65.527344 140.527344 " transform="matrix(0.32,0,0,0.32,0,0)"/>
<path style="fill:none;stroke-width:1.5;stroke-linecap:butt;stroke-linejoin:miter;stroke:rgb(45.098039%,49.411765%,49.411765%);stroke-opacity:1;stroke-miterlimit:10;" d="M -43.664551 37.585449 L 62.414551 143.664551 " transform="matrix(0.32,0,0,0.32,0,0)"/>
<path style="fill:none;stroke-width:1.5;stroke-linecap:butt;stroke-linejoin:miter;stroke:rgb(45.098039%,49.411765%,49.411765%);stroke-opacity:1;stroke-miterlimit:10;" d="M -46.777344 40.722656 L 59.277344 146.777344 " transform="matrix(0.32,0,0,0.32,0,0)"/>
<path style="fill:none;stroke-width:1.5;stroke-linecap:butt;stroke-linejoin:miter;stroke:rgb(45.098039%,49.411765%,49.411765%);stroke-opacity:1;stroke-miterlimit:10;" d="M -49.914551 43.835449 L 56.164551 149.914551 " transform="matrix(0.32,0,0,0.32,0,0)"/>
<path style="fill:none;stroke-width:1.5;stroke-linecap:butt;stroke-linejoin:miter;stroke:rgb(45.098039%,49.411765%,49.411765%);stroke-opacity:1;stroke-miterlimit:10;" d="M -53.027344 46.972656 L 53.027344 153.027344 " transform="matrix(0.32,0,0,0.32,0,0)"/>
<path style="fill:none;stroke-width:1.5;stroke-linecap:butt;stroke-linejoin:miter;stroke:rgb(45.098039%,49.411765%,49.411765%);stroke-opacity:1;stroke-miterlimit:10;" d="M 53.027344 -53.027344 L -53.027344 53.027344 " transform="matrix(0.32,0,0,0.32,0,0)"/>
<path style="fill:none;stroke-width:1.5;stroke-linecap:butt;stroke-linejoin:miter;stroke:rgb(45.098039%,49.411765%,49.411765%);stroke-opacity:1;stroke-miterlimit:10;" d="M 56.164551 -49.914551 L -49.914551 56.164551 " transform="matrix(0.32,0,0,0.32,0,0)"/>
<path style="fill:none;stroke-width:1.5;stroke-linecap:butt;stroke-linejoin:miter;stroke:rgb(45.098039%,49.411765%,49.411765%);stroke-opacity:1;stroke-miterlimit:10;" d="M 59.277344 -46.777344 L -46.777344 59.277344 " transform="matrix(0.32,0,0,0.32,0,0)"/>
<path style="fill:none;stroke-width:1.5;stroke-linecap:butt;stroke-linejoin:miter;stroke:rgb(45.098039%,49.411765%,49.411765%);stroke-opacity:1;stroke-miterlimit:10;" d="M 62.414551 -43.664551 L -43.664551 62.414551 " transform="matrix(0.32,0,0,0.32,0,0)"/>
<path style="fill:none;stroke-width:1.5;stroke-linecap:butt;stroke-linejoin:miter;stroke:rgb(45.098039%,49.411765%,49.411765%);stroke-opacity:1;stroke-miterlimit:10;" d="M 65.527344 -40.527344 L -40.527344 65.527344 " transform="matrix(0.32,0,0,0.32,0,0)"/>
<path style="fill:none;stroke-width:1.5;stroke-linecap:butt;stroke-linejoin:miter;stroke:rgb(45.098039%,49.411765%,49.411765%);stroke-opacity:1;stroke-miterlimit:10;" d="M 68.664551 -37.414551 L -37.414551 68.664551 " transform="matrix(0.32,0,0,0.32,0,0)"/>
<path style="fill:none;stroke-width:1.5;stroke-linecap:butt;stroke-linejoin:miter;stroke:rgb(45.098039%,49.411765%,49.411765%);stroke-opacity:1;stroke-miterlimit:10;" d="M 71.777344 -34.277344 L -34.277344 71.777344 " transform="matrix(0.32,0,0,0.32,0,0)"/>
<path style="fill:none;stroke-width:1.5;stroke-linecap:butt;stroke-linejoin:miter;stroke:rgb(45.098039%,49.411765%,49.411765%);stroke-opacity:1;stroke-miterlimit:10;" d="M 74.914551 -31.164551 L -31.164551 74.914551 " transform="matrix(0.32,0,0,0.32,0,0)"/>
<path style="fill:none;stroke-width:1.5;stroke-linecap:butt;stroke-linejoin:miter;stroke:rgb(45.098039%,49.411765%,49.411765%);stroke-opacity:1;stroke-miterlimit:10;" d="M 78.027344 -28.027344 L -28.027344 78.027344 " transform="matrix(0.32,0,0,0.32,0,0)"/>
<path style="fill:none;stroke-width:1.5;stroke-linecap:butt;stroke-linejoin:miter;stroke:rgb(45.098039%,49.411765%,49.411765%);stroke-opacity:1;stroke-miterlimit:10;" d="M 81.164551 -24.914551 L -24.914551 81.164551 " transform="matrix(0.32,0,0,0.32,0,0)"/>
<path style="fill:none;stroke-width:1.5;stroke-linecap:butt;stroke-linejoin:miter;stroke:rgb(45.098039%,49.411765%,49.411765%);stroke-opacity:1;stroke-miterlimit:10;" d="M 84.277344 -21.777344 L -21.777344 84.277344 " transform="matrix(0.32,0,0,0.32,0,0)"/>
<path style="fill:none;stroke-width:1.5;stroke-linecap:butt;stroke-linejoin:miter;stroke:rgb(45.098039%,49.411765%,49.411765%);stroke-opacity:1;stroke-miterlimit:10;" d="M 87.414551 -18.664551 L -18.664551 87.414551 " transform="matrix(0.32,0,0,0.32,0,0)"/>
<path style="fill:none;stroke-width:1.5;stroke-linecap:butt;stroke-linejoin:miter;stroke:rgb(45.098039%,49.411765%,49.411765%);stroke-opacity:1;stroke-miterlimit:10;" d="M 90.527344 -15.527344 L -15.527344 90.527344 " transform="matrix(0.32,0,0,0.32,0,0)"/>
<path style="fill:none;stroke-width:1.5;stroke-linecap:butt;stroke-linejoin:miter;stroke:rgb(45.098039%,49.411765%,49.411765%);stroke-opacity:1;stroke-miterlimit:10;" d="M 93.664551 -12.414551 L -12.414551 93.664551 " transform="matrix(0.32,0,0,0.32,0,0)"/>
<path style="fill:none;stroke-width:1.5;stroke-linecap:butt;stroke-linejoin:miter;stroke:rgb(45.098039%,49.411765%,49.411765%);stroke-opacity:1;stroke-miterlimit:10;" d="M 96.777344 -9.277344 L -9.277344 96.777344 " transform="matrix(0.32,0,0,0.32,0,0)"/>
<path style="fill:none;stroke-width:1.5;stroke-linecap:butt;stroke-linejoin:miter;stroke:rgb(45.098039%,49.411765%,49.411765%);stroke-opacity:1;stroke-miterlimit:10;" d="M 99.914551 -6.164551 L -6.164551 99.914551 " transform="matrix(0.32,0,0,0.32,0,0)"/>
<path style="fill:none;stroke-width:1.5;stroke-linecap:butt;stroke-linejoin:miter;stroke:rgb(45.098039%,49.411765%,49.411765%);stroke-opacity:1;stroke-miterlimit:10;" d="M 103.027344 -3.027344 L -3.027344 103.027344 " transform="matrix(0.32,0,0,0.32,0,0)"/>
<path style="fill:none;stroke-width:1.5;stroke-linecap:butt;stroke-linejoin:miter;stroke:rgb(45.098039%,49.411765%,49.411765%);stroke-opacity:1;stroke-miterlimit:10;" d="M 106.164551 0.0854492 L 0.0854492 106.164551 " transform="matrix(0.32,0,0,0.32,0,0)"/>
<path style="fill:none;stroke-width:1.5;stroke-linecap:butt;stroke-linejoin:miter;stroke:rgb(45.098039%,49.411765%,49.411765%);stroke-opacity:1;stroke-miterlimit:10;" d="M 109.277344 3.222656 L 3.222656 109.277344 " transform="matrix(0.32,0,0,0.32,0,0)"/>
<path style="fill:none;stroke-width:1.5;stroke-linecap:butt;stroke-linejoin:miter;stroke:rgb(45.098039%,49.411765%,49.411765%);stroke-opacity:1;stroke-miterlimit:10;" d="M 112.414551 6.335449 L 6.335449 112.414551 " transform="matrix(0.32,0,0,0.32,0,0)"/>
<path style="fill:none;stroke-width:1.5;stroke-linecap:butt;stroke-linejoin:miter;stroke:rgb(45.098039%,49.411765%,49.411765%);stroke-opacity:1;stroke-miterlimit:10;" d="M 115.527344 9.472656 L 9.472656 115.527344 " transform="matrix(0.32,0,0,0.32,0,0)"/>
<path style="fill:none;stroke-width:1.5;stroke-linecap:butt;stroke-linejoin:miter;stroke:rgb(45.098039%,49.411765%,49.411765%);stroke-opacity:1;stroke-miterlimit:10;" d="M 118.664551 12.585449 L 12.585449 118.664551 " transform="matrix(0.32,0,0,0.32,0,0)"/>
<path style="fill:none;stroke-width:1.5;stroke-linecap:butt;stroke-linejoin:miter;stroke:rgb(45.098039%,49.411765%,49.411765%);stroke-opacity:1;stroke-miterlimit:10;" d="M 121.777344 15.722656 L 15.722656 121.777344 " transform="matrix(0.32,0,0,0.32,0,0)"/>
<path style="fill:none;stroke-width:1.5;stroke-linecap:butt;stroke-linejoin:miter;stroke:rgb(45.098039%,49.411765%,49.411765%);stroke-opacity:1;stroke-miterlimit:10;" d="M 124.914551 18.835449 L 18.835449 124.914551 " transform="matrix(0.32,0,0,0.32,0,0)"/>
<path style="fill:none;stroke-width:1.5;stroke-linecap:butt;stroke-linejoin:miter;stroke:rgb(45.098039%,49.411765%,49.411765%);stroke-opacity:1;stroke-miterlimit:10;" d="M 128.027344 21.972656 L 21.972656 128.027344 " transform="matrix(0.32,0,0,0.32,0,0)"/>
<path style="fill:none;stroke-width:1.5;stroke-linecap:butt;stroke-linejoin:miter;stroke:rgb(45.098039%,49.411765%,49.411765%);stroke-opacity:1;stroke-miterlimit:10;" d="M 131.164551 25.085449 L 25.085449 131.164551 " transform="matrix(0.32,0,0,0.32,0,0)"/>
<path style="fill:none;stroke-width:1.5;stroke-linecap:butt;stroke-linejoin:miter;stroke:rgb(45.098039%,49.411765%,49.411765%);stroke-opacity:1;stroke-miterlimit:10;" d="M 134.277344 28.222656 L 28.222656 134.277344 " transform="matrix(0.32,0,0,0.32,0,0)"/>
<path style="fill:none;stroke-width:1.5;stroke-linecap:butt;stroke-linejoin:miter;stroke:rgb(45.098039%,49.411765%,49.411765%);stroke-opacity:1;stroke-miterlimit:10;" d="M 137.414551 31.335449 L 31.335449 137.414551 " transform="matrix(0.32,0,0,0.32,0,0)"/>
<path style="fill:none;stroke-width:1.5;stroke-linecap:butt;stroke-linejoin:miter;stroke:rgb(45.098039%,49.411765%,49.411765%);stroke-opacity:1;stroke-miterlimit:10;" d="M 140.527344 34.472656 L 34.472656 140.527344 " transform="matrix(0.32,0,0,0.32,0,0)"/>
<path style="fill:none;stroke-width:1.5;stroke-linecap:butt;stroke-linejoin:miter;stroke:rgb(45.098039%,49.411765%,49.411765%);stroke-opacity:1;stroke-miterlimit:10;" d="M 143.664551 37.585449 L 37.585449 143.664551 " transform="matrix(0.32,0,0,0.32,0,0)"/>
<path style="fill:none;stroke-width:1.5;stroke-linecap:butt;stroke-linejoin:miter;stroke:rgb(45.098039%,49.411765%,49.411765%);stroke-opacity:1;stroke-miterlimit:10;" d="M 146.777344 40.722656 L 40.722656 146.777344 " transform="matrix(0.32,0,0,0.32,0,0)"/>
<path style="fill:none;stroke-width:1.5;stroke-linecap:butt;stroke-linejoin:miter;stroke:rgb(45.098039%,49.411765%,49.411765%);stroke-opacity:1;stroke-miterlimit:10;" d="M 149.914551 43.835449 L 43.835449 149.914551 " transform="matrix(0.32,0,0,0.32,0,0)"/>
<path style="fill:none;stroke-width:1.5;stroke-linecap:butt;stroke-linejoin:miter;stroke:rgb(45.098039%,49.411765%,49.411765%);stroke-opacity:1;stroke-miterlimit:10;" d="M 153.027344 46.972656 L 46.972656 153.027344 " transform="matrix(0.32,0,0,0.32,0,0)"/>
</g>
<pattern id="pattern0" patternUnits="userSpaceOnUse" width="32" height="32" patternTransform="matrix(1,0,0,1,43.728,44.6048)">
<use xlink:href="#surface5"/>
</pattern>
</defs>
<g id="surface1">
<rect x="0" y="0" width="32" height="32" style="fill:url(#pattern0);stroke:none;"/>
</g>
</svg>
