<?xml version="1.0" encoding="UTF-8"?>
<svg xmlns="http://www.w3.org/2000/svg" xmlns:xlink="http://www.w3.org/1999/xlink" width="32px" height="32px" viewBox="0 0 32 32" version="1.1">
<defs>
<clipPath id="clip1">
  <rect x="0" y="0" width="32" height="32"/>
</clipPath>
<g id="surface5" clip-path="url(#clip1)">
<path style="fill:none;stroke-width:2;stroke-linecap:butt;stroke-linejoin:miter;stroke:rgb(11.764706%,24.313725%,41.176471%);stroke-opacity:1;stroke-miterlimit:10;" d="M 96.972656 96.972656 L 203.027344 203.027344 " transform="matrix(0.32,0,0,0.32,0,0)"/>
<path style="fill:none;stroke-width:2;stroke-linecap:butt;stroke-linejoin:miter;stroke:rgb(11.764706%,24.313725%,41.176471%);stroke-opacity:1;stroke-miterlimit:10;" d="M 153.027344 46.972656 L 46.972656 153.027344 " transform="matrix(0.32,0,0,0.32,0,0)"/>
<path style="fill:none;stroke-width:2;stroke-linecap:butt;stroke-linejoin:miter;stroke:rgb(11.764706%,24.313725%,41.176471%);stroke-opacity:1;stroke-miterlimit:10;" d="M 163.024902 56.970215 L 56.970215 163.024902 " transform="matrix(0.32,0,0,0.32,0,0)"/>
<path style="fill:none;stroke-width:2;stroke-linecap:butt;stroke-linejoin:miter;stroke:rgb(11.764706%,24.313725%,41.176471%);stroke-opacity:1;stroke-miterlimit:10;" d="M 173.034668 66.967773 L 66.967773 173.034668 " transform="matrix(0.32,0,0,0.32,0,0)"/>
<path style="fill:none;stroke-width:2;stroke-linecap:butt;stroke-linejoin:miter;stroke:rgb(11.764706%,24.313725%,41.176471%);stroke-opacity:1;stroke-miterlimit:10;" d="M 183.032227 76.965332 L 76.965332 183.032227 " transform="matrix(0.32,0,0,0.32,0,0)"/>
<path style="fill:none;stroke-width:2;stroke-linecap:butt;stroke-linejoin:miter;stroke:rgb(11.764706%,24.313725%,41.176471%);stroke-opacity:1;stroke-miterlimit:10;" d="M 193.029785 86.975098 L 86.975098 193.029785 " transform="matrix(0.32,0,0,0.32,0,0)"/>
<path style="fill:none;stroke-width:2;stroke-linecap:butt;stroke-linejoin:miter;stroke:rgb(11.764706%,24.313725%,41.176471%);stroke-opacity:1;stroke-miterlimit:10;" d="M 203.027344 96.972656 L 96.972656 203.027344 " transform="matrix(0.32,0,0,0.32,0,0)"/>
<path style="fill:none;stroke-width:2;stroke-linecap:butt;stroke-linejoin:miter;stroke:rgb(11.764706%,24.313725%,41.176471%);stroke-opacity:1;stroke-miterlimit:10;" d="M 46.972656 46.972656 L 153.027344 153.027344 " transform="matrix(0.32,0,0,0.32,0,0)"/>
<path style="fill:none;stroke-width:2;stroke-linecap:butt;stroke-linejoin:miter;stroke:rgb(11.764706%,24.313725%,41.176471%);stroke-opacity:1;stroke-miterlimit:10;" d="M 36.975098 56.970215 L 143.029785 163.024902 " transform="matrix(0.32,0,0,0.32,0,0)"/>
<path style="fill:none;stroke-width:2;stroke-linecap:butt;stroke-linejoin:miter;stroke:rgb(11.764706%,24.313725%,41.176471%);stroke-opacity:1;stroke-miterlimit:10;" d="M 26.965332 66.967773 L 133.032227 173.034668 " transform="matrix(0.32,0,0,0.32,0,0)"/>
<path style="fill:none;stroke-width:2;stroke-linecap:butt;stroke-linejoin:miter;stroke:rgb(11.764706%,24.313725%,41.176471%);stroke-opacity:1;stroke-miterlimit:10;" d="M 16.967773 76.965332 L 123.034668 183.032227 " transform="matrix(0.32,0,0,0.32,0,0)"/>
<path style="fill:none;stroke-width:2;stroke-linecap:butt;stroke-linejoin:miter;stroke:rgb(11.764706%,24.313725%,41.176471%);stroke-opacity:1;stroke-miterlimit:10;" d="M 6.970215 86.975098 L 113.024902 193.029785 " transform="matrix(0.32,0,0,0.32,0,0)"/>
<path style="fill:none;stroke-width:2;stroke-linecap:butt;stroke-linejoin:miter;stroke:rgb(11.764706%,24.313725%,41.176471%);stroke-opacity:1;stroke-miterlimit:10;" d="M -3.027344 96.972656 L 103.027344 203.027344 " transform="matrix(0.32,0,0,0.32,0,0)"/>
<path style="fill:none;stroke-width:2;stroke-linecap:butt;stroke-linejoin:miter;stroke:rgb(11.764706%,24.313725%,41.176471%);stroke-opacity:1;stroke-miterlimit:10;" d="M 53.027344 46.972656 L -53.027344 153.027344 " transform="matrix(0.32,0,0,0.32,0,0)"/>
<path style="fill:none;stroke-width:2;stroke-linecap:butt;stroke-linejoin:miter;stroke:rgb(11.764706%,24.313725%,41.176471%);stroke-opacity:1;stroke-miterlimit:10;" d="M 63.024902 56.970215 L -43.029785 163.024902 " transform="matrix(0.32,0,0,0.32,0,0)"/>
<path style="fill:none;stroke-width:2;stroke-linecap:butt;stroke-linejoin:miter;stroke:rgb(11.764706%,24.313725%,41.176471%);stroke-opacity:1;stroke-miterlimit:10;" d="M 73.034668 66.967773 L -33.032227 173.034668 " transform="matrix(0.32,0,0,0.32,0,0)"/>
<path style="fill:none;stroke-width:2;stroke-linecap:butt;stroke-linejoin:miter;stroke:rgb(11.764706%,24.313725%,41.176471%);stroke-opacity:1;stroke-miterlimit:10;" d="M 83.032227 76.965332 L -23.034668 183.032227 " transform="matrix(0.32,0,0,0.32,0,0)"/>
<path style="fill:none;stroke-width:2;stroke-linecap:butt;stroke-linejoin:miter;stroke:rgb(11.764706%,24.313725%,41.176471%);stroke-opacity:1;stroke-miterlimit:10;" d="M 93.029785 86.975098 L -13.024902 193.029785 " transform="matrix(0.32,0,0,0.32,0,0)"/>
<path style="fill:none;stroke-width:2;stroke-linecap:butt;stroke-linejoin:miter;stroke:rgb(11.764706%,24.313725%,41.176471%);stroke-opacity:1;stroke-miterlimit:10;" d="M 103.027344 96.972656 L -3.027344 203.027344 " transform="matrix(0.32,0,0,0.32,0,0)"/>
<path style="fill:none;stroke-width:2;stroke-linecap:butt;stroke-linejoin:miter;stroke:rgb(11.764706%,24.313725%,41.176471%);stroke-opacity:1;stroke-miterlimit:10;" d="M -53.027344 46.972656 L 53.027344 153.027344 " transform="matrix(0.32,0,0,0.32,0,0)"/>
<path style="fill:none;stroke-width:2;stroke-linecap:butt;stroke-linejoin:miter;stroke:rgb(11.764706%,24.313725%,41.176471%);stroke-opacity:1;stroke-miterlimit:10;" d="M -63.024902 56.970215 L 43.029785 163.024902 " transform="matrix(0.32,0,0,0.32,0,0)"/>
<path style="fill:none;stroke-width:2;stroke-linecap:butt;stroke-linejoin:miter;stroke:rgb(11.764706%,24.313725%,41.176471%);stroke-opacity:1;stroke-miterlimit:10;" d="M -73.034668 66.967773 L 33.032227 173.034668 " transform="matrix(0.32,0,0,0.32,0,0)"/>
<path style="fill:none;stroke-width:2;stroke-linecap:butt;stroke-linejoin:miter;stroke:rgb(11.764706%,24.313725%,41.176471%);stroke-opacity:1;stroke-miterlimit:10;" d="M -83.032227 76.965332 L 23.034668 183.032227 " transform="matrix(0.32,0,0,0.32,0,0)"/>
<path style="fill:none;stroke-width:2;stroke-linecap:butt;stroke-linejoin:miter;stroke:rgb(11.764706%,24.313725%,41.176471%);stroke-opacity:1;stroke-miterlimit:10;" d="M -93.029785 86.975098 L 13.024902 193.029785 " transform="matrix(0.32,0,0,0.32,0,0)"/>
<path style="fill:none;stroke-width:2;stroke-linecap:butt;stroke-linejoin:miter;stroke:rgb(11.764706%,24.313725%,41.176471%);stroke-opacity:1;stroke-miterlimit:10;" d="M -103.027344 96.972656 L 3.027344 203.027344 " transform="matrix(0.32,0,0,0.32,0,0)"/>
<path style="fill:none;stroke-width:2;stroke-linecap:butt;stroke-linejoin:miter;stroke:rgb(11.764706%,24.313725%,41.176471%);stroke-opacity:1;stroke-miterlimit:10;" d="M 3.027344 96.972656 L -103.027344 203.027344 " transform="matrix(0.32,0,0,0.32,0,0)"/>
<path style="fill:none;stroke-width:2;stroke-linecap:butt;stroke-linejoin:miter;stroke:rgb(11.764706%,24.313725%,41.176471%);stroke-opacity:1;stroke-miterlimit:10;" d="M 96.972656 -3.027344 L 203.027344 103.027344 " transform="matrix(0.32,0,0,0.32,0,0)"/>
<path style="fill:none;stroke-width:2;stroke-linecap:butt;stroke-linejoin:miter;stroke:rgb(11.764706%,24.313725%,41.176471%);stroke-opacity:1;stroke-miterlimit:10;" d="M 86.975098 6.970215 L 193.029785 113.024902 " transform="matrix(0.32,0,0,0.32,0,0)"/>
<path style="fill:none;stroke-width:2;stroke-linecap:butt;stroke-linejoin:miter;stroke:rgb(11.764706%,24.313725%,41.176471%);stroke-opacity:1;stroke-miterlimit:10;" d="M 76.965332 16.967773 L 183.032227 123.034668 " transform="matrix(0.32,0,0,0.32,0,0)"/>
<path style="fill:none;stroke-width:2;stroke-linecap:butt;stroke-linejoin:miter;stroke:rgb(11.764706%,24.313725%,41.176471%);stroke-opacity:1;stroke-miterlimit:10;" d="M 66.967773 26.965332 L 173.034668 133.032227 " transform="matrix(0.32,0,0,0.32,0,0)"/>
<path style="fill:none;stroke-width:2;stroke-linecap:butt;stroke-linejoin:miter;stroke:rgb(11.764706%,24.313725%,41.176471%);stroke-opacity:1;stroke-miterlimit:10;" d="M 56.970215 36.975098 L 163.024902 143.029785 " transform="matrix(0.32,0,0,0.32,0,0)"/>
<path style="fill:none;stroke-width:2;stroke-linecap:butt;stroke-linejoin:miter;stroke:rgb(11.764706%,24.313725%,41.176471%);stroke-opacity:1;stroke-miterlimit:10;" d="M 46.972656 46.972656 L 153.027344 153.027344 " transform="matrix(0.32,0,0,0.32,0,0)"/>
<path style="fill:none;stroke-width:2;stroke-linecap:butt;stroke-linejoin:miter;stroke:rgb(11.764706%,24.313725%,41.176471%);stroke-opacity:1;stroke-miterlimit:10;" d="M 153.027344 -53.027344 L 46.972656 53.027344 " transform="matrix(0.32,0,0,0.32,0,0)"/>
<path style="fill:none;stroke-width:2;stroke-linecap:butt;stroke-linejoin:miter;stroke:rgb(11.764706%,24.313725%,41.176471%);stroke-opacity:1;stroke-miterlimit:10;" d="M 163.024902 -43.029785 L 56.970215 63.024902 " transform="matrix(0.32,0,0,0.32,0,0)"/>
<path style="fill:none;stroke-width:2;stroke-linecap:butt;stroke-linejoin:miter;stroke:rgb(11.764706%,24.313725%,41.176471%);stroke-opacity:1;stroke-miterlimit:10;" d="M 173.034668 -33.032227 L 66.967773 73.034668 " transform="matrix(0.32,0,0,0.32,0,0)"/>
<path style="fill:none;stroke-width:2;stroke-linecap:butt;stroke-linejoin:miter;stroke:rgb(11.764706%,24.313725%,41.176471%);stroke-opacity:1;stroke-miterlimit:10;" d="M 183.032227 -23.034668 L 76.965332 83.032227 " transform="matrix(0.32,0,0,0.32,0,0)"/>
<path style="fill:none;stroke-width:2;stroke-linecap:butt;stroke-linejoin:miter;stroke:rgb(11.764706%,24.313725%,41.176471%);stroke-opacity:1;stroke-miterlimit:10;" d="M 193.029785 -13.024902 L 86.975098 93.029785 " transform="matrix(0.32,0,0,0.32,0,0)"/>
<path style="fill:none;stroke-width:2;stroke-linecap:butt;stroke-linejoin:miter;stroke:rgb(11.764706%,24.313725%,41.176471%);stroke-opacity:1;stroke-miterlimit:10;" d="M 203.027344 -3.027344 L 96.972656 103.027344 " transform="matrix(0.32,0,0,0.32,0,0)"/>
<path style="fill:none;stroke-width:2;stroke-linecap:butt;stroke-linejoin:miter;stroke:rgb(11.764706%,24.313725%,41.176471%);stroke-opacity:1;stroke-miterlimit:10;" d="M 46.972656 -53.027344 L 153.027344 53.027344 " transform="matrix(0.32,0,0,0.32,0,0)"/>
<path style="fill:none;stroke-width:2;stroke-linecap:butt;stroke-linejoin:miter;stroke:rgb(11.764706%,24.313725%,41.176471%);stroke-opacity:1;stroke-miterlimit:10;" d="M 36.975098 -43.029785 L 143.029785 63.024902 " transform="matrix(0.32,0,0,0.32,0,0)"/>
<path style="fill:none;stroke-width:2;stroke-linecap:butt;stroke-linejoin:miter;stroke:rgb(11.764706%,24.313725%,41.176471%);stroke-opacity:1;stroke-miterlimit:10;" d="M 26.965332 -33.032227 L 133.032227 73.034668 " transform="matrix(0.32,0,0,0.32,0,0)"/>
<path style="fill:none;stroke-width:2;stroke-linecap:butt;stroke-linejoin:miter;stroke:rgb(11.764706%,24.313725%,41.176471%);stroke-opacity:1;stroke-miterlimit:10;" d="M 16.967773 -23.034668 L 123.034668 83.032227 " transform="matrix(0.32,0,0,0.32,0,0)"/>
<path style="fill:none;stroke-width:2;stroke-linecap:butt;stroke-linejoin:miter;stroke:rgb(11.764706%,24.313725%,41.176471%);stroke-opacity:1;stroke-miterlimit:10;" d="M 6.970215 -13.024902 L 113.024902 93.029785 " transform="matrix(0.32,0,0,0.32,0,0)"/>
<path style="fill:none;stroke-width:2;stroke-linecap:butt;stroke-linejoin:miter;stroke:rgb(11.764706%,24.313725%,41.176471%);stroke-opacity:1;stroke-miterlimit:10;" d="M -3.027344 -3.027344 L 103.027344 103.027344 " transform="matrix(0.32,0,0,0.32,0,0)"/>
<path style="fill:none;stroke-width:2;stroke-linecap:butt;stroke-linejoin:miter;stroke:rgb(11.764706%,24.313725%,41.176471%);stroke-opacity:1;stroke-miterlimit:10;" d="M -13.024902 6.970215 L 93.029785 113.024902 " transform="matrix(0.32,0,0,0.32,0,0)"/>
<path style="fill:none;stroke-width:2;stroke-linecap:butt;stroke-linejoin:miter;stroke:rgb(11.764706%,24.313725%,41.176471%);stroke-opacity:1;stroke-miterlimit:10;" d="M -23.034668 16.967773 L 83.032227 123.034668 " transform="matrix(0.32,0,0,0.32,0,0)"/>
<path style="fill:none;stroke-width:2;stroke-linecap:butt;stroke-linejoin:miter;stroke:rgb(11.764706%,24.313725%,41.176471%);stroke-opacity:1;stroke-miterlimit:10;" d="M -33.032227 26.965332 L 73.034668 133.032227 " transform="matrix(0.32,0,0,0.32,0,0)"/>
<path style="fill:none;stroke-width:2;stroke-linecap:butt;stroke-linejoin:miter;stroke:rgb(11.764706%,24.313725%,41.176471%);stroke-opacity:1;stroke-miterlimit:10;" d="M -43.029785 36.975098 L 63.024902 143.029785 " transform="matrix(0.32,0,0,0.32,0,0)"/>
<path style="fill:none;stroke-width:2;stroke-linecap:butt;stroke-linejoin:miter;stroke:rgb(11.764706%,24.313725%,41.176471%);stroke-opacity:1;stroke-miterlimit:10;" d="M -53.027344 46.972656 L 53.027344 153.027344 " transform="matrix(0.32,0,0,0.32,0,0)"/>
<path style="fill:none;stroke-width:2;stroke-linecap:butt;stroke-linejoin:miter;stroke:rgb(11.764706%,24.313725%,41.176471%);stroke-opacity:1;stroke-miterlimit:10;" d="M 53.027344 -53.027344 L -53.027344 53.027344 " transform="matrix(0.32,0,0,0.32,0,0)"/>
<path style="fill:none;stroke-width:2;stroke-linecap:butt;stroke-linejoin:miter;stroke:rgb(11.764706%,24.313725%,41.176471%);stroke-opacity:1;stroke-miterlimit:10;" d="M 63.024902 -43.029785 L -43.029785 63.024902 " transform="matrix(0.32,0,0,0.32,0,0)"/>
<path style="fill:none;stroke-width:2;stroke-linecap:butt;stroke-linejoin:miter;stroke:rgb(11.764706%,24.313725%,41.176471%);stroke-opacity:1;stroke-miterlimit:10;" d="M 73.034668 -33.032227 L -33.032227 73.034668 " transform="matrix(0.32,0,0,0.32,0,0)"/>
<path style="fill:none;stroke-width:2;stroke-linecap:butt;stroke-linejoin:miter;stroke:rgb(11.764706%,24.313725%,41.176471%);stroke-opacity:1;stroke-miterlimit:10;" d="M 83.032227 -23.034668 L -23.034668 83.032227 " transform="matrix(0.32,0,0,0.32,0,0)"/>
<path style="fill:none;stroke-width:2;stroke-linecap:butt;stroke-linejoin:miter;stroke:rgb(11.764706%,24.313725%,41.176471%);stroke-opacity:1;stroke-miterlimit:10;" d="M 93.029785 -13.024902 L -13.024902 93.029785 " transform="matrix(0.32,0,0,0.32,0,0)"/>
<path style="fill:none;stroke-width:2;stroke-linecap:butt;stroke-linejoin:miter;stroke:rgb(11.764706%,24.313725%,41.176471%);stroke-opacity:1;stroke-miterlimit:10;" d="M 103.027344 -3.027344 L -3.027344 103.027344 " transform="matrix(0.32,0,0,0.32,0,0)"/>
<path style="fill:none;stroke-width:2;stroke-linecap:butt;stroke-linejoin:miter;stroke:rgb(11.764706%,24.313725%,41.176471%);stroke-opacity:1;stroke-miterlimit:10;" d="M 113.024902 6.970215 L 6.970215 113.024902 " transform="matrix(0.32,0,0,0.32,0,0)"/>
<path style="fill:none;stroke-width:2;stroke-linecap:butt;stroke-linejoin:miter;stroke:rgb(11.764706%,24.313725%,41.176471%);stroke-opacity:1;stroke-miterlimit:10;" d="M 123.034668 16.967773 L 16.967773 123.034668 " transform="matrix(0.32,0,0,0.32,0,0)"/>
<path style="fill:none;stroke-width:2;stroke-linecap:butt;stroke-linejoin:miter;stroke:rgb(11.764706%,24.313725%,41.176471%);stroke-opacity:1;stroke-miterlimit:10;" d="M 133.032227 26.965332 L 26.965332 133.032227 " transform="matrix(0.32,0,0,0.32,0,0)"/>
<path style="fill:none;stroke-width:2;stroke-linecap:butt;stroke-linejoin:miter;stroke:rgb(11.764706%,24.313725%,41.176471%);stroke-opacity:1;stroke-miterlimit:10;" d="M 143.029785 36.975098 L 36.975098 143.029785 " transform="matrix(0.32,0,0,0.32,0,0)"/>
<path style="fill:none;stroke-width:2;stroke-linecap:butt;stroke-linejoin:miter;stroke:rgb(11.764706%,24.313725%,41.176471%);stroke-opacity:1;stroke-miterlimit:10;" d="M 153.027344 46.972656 L 46.972656 153.027344 " transform="matrix(0.32,0,0,0.32,0,0)"/>
<path style="fill:none;stroke-width:2;stroke-linecap:butt;stroke-linejoin:miter;stroke:rgb(11.764706%,24.313725%,41.176471%);stroke-opacity:1;stroke-miterlimit:10;" d="M -53.027344 -53.027344 L 53.027344 53.027344 " transform="matrix(0.32,0,0,0.32,0,0)"/>
<path style="fill:none;stroke-width:2;stroke-linecap:butt;stroke-linejoin:miter;stroke:rgb(11.764706%,24.313725%,41.176471%);stroke-opacity:1;stroke-miterlimit:10;" d="M -63.024902 -43.029785 L 43.029785 63.024902 " transform="matrix(0.32,0,0,0.32,0,0)"/>
<path style="fill:none;stroke-width:2;stroke-linecap:butt;stroke-linejoin:miter;stroke:rgb(11.764706%,24.313725%,41.176471%);stroke-opacity:1;stroke-miterlimit:10;" d="M -73.034668 -33.032227 L 33.032227 73.034668 " transform="matrix(0.32,0,0,0.32,0,0)"/>
<path style="fill:none;stroke-width:2;stroke-linecap:butt;stroke-linejoin:miter;stroke:rgb(11.764706%,24.313725%,41.176471%);stroke-opacity:1;stroke-miterlimit:10;" d="M -83.032227 -23.034668 L 23.034668 83.032227 " transform="matrix(0.32,0,0,0.32,0,0)"/>
<path style="fill:none;stroke-width:2;stroke-linecap:butt;stroke-linejoin:miter;stroke:rgb(11.764706%,24.313725%,41.176471%);stroke-opacity:1;stroke-miterlimit:10;" d="M -93.029785 -13.024902 L 13.024902 93.029785 " transform="matrix(0.32,0,0,0.32,0,0)"/>
<path style="fill:none;stroke-width:2;stroke-linecap:butt;stroke-linejoin:miter;stroke:rgb(11.764706%,24.313725%,41.176471%);stroke-opacity:1;stroke-miterlimit:10;" d="M -103.027344 -3.027344 L 3.027344 103.027344 " transform="matrix(0.32,0,0,0.32,0,0)"/>
<path style="fill:none;stroke-width:2;stroke-linecap:butt;stroke-linejoin:miter;stroke:rgb(11.764706%,24.313725%,41.176471%);stroke-opacity:1;stroke-miterlimit:10;" d="M 3.027344 -3.027344 L -103.027344 103.027344 " transform="matrix(0.32,0,0,0.32,0,0)"/>
<path style="fill:none;stroke-width:2;stroke-linecap:butt;stroke-linejoin:miter;stroke:rgb(11.764706%,24.313725%,41.176471%);stroke-opacity:1;stroke-miterlimit:10;" d="M 13.024902 6.970215 L -93.029785 113.024902 " transform="matrix(0.32,0,0,0.32,0,0)"/>
<path style="fill:none;stroke-width:2;stroke-linecap:butt;stroke-linejoin:miter;stroke:rgb(11.764706%,24.313725%,41.176471%);stroke-opacity:1;stroke-miterlimit:10;" d="M 23.034668 16.967773 L -83.032227 123.034668 " transform="matrix(0.32,0,0,0.32,0,0)"/>
<path style="fill:none;stroke-width:2;stroke-linecap:butt;stroke-linejoin:miter;stroke:rgb(11.764706%,24.313725%,41.176471%);stroke-opacity:1;stroke-miterlimit:10;" d="M 33.032227 26.965332 L -73.034668 133.032227 " transform="matrix(0.32,0,0,0.32,0,0)"/>
<path style="fill:none;stroke-width:2;stroke-linecap:butt;stroke-linejoin:miter;stroke:rgb(11.764706%,24.313725%,41.176471%);stroke-opacity:1;stroke-miterlimit:10;" d="M 43.029785 36.975098 L -63.024902 143.029785 " transform="matrix(0.32,0,0,0.32,0,0)"/>
<path style="fill:none;stroke-width:2;stroke-linecap:butt;stroke-linejoin:miter;stroke:rgb(11.764706%,24.313725%,41.176471%);stroke-opacity:1;stroke-miterlimit:10;" d="M 53.027344 46.972656 L -53.027344 153.027344 " transform="matrix(0.32,0,0,0.32,0,0)"/>
<path style="fill:none;stroke-width:2;stroke-linecap:butt;stroke-linejoin:miter;stroke:rgb(11.764706%,24.313725%,41.176471%);stroke-opacity:1;stroke-miterlimit:10;" d="M 96.972656 -103.027344 L 203.027344 3.027344 " transform="matrix(0.32,0,0,0.32,0,0)"/>
<path style="fill:none;stroke-width:2;stroke-linecap:butt;stroke-linejoin:miter;stroke:rgb(11.764706%,24.313725%,41.176471%);stroke-opacity:1;stroke-miterlimit:10;" d="M 86.975098 -93.029785 L 193.029785 13.024902 " transform="matrix(0.32,0,0,0.32,0,0)"/>
<path style="fill:none;stroke-width:2;stroke-linecap:butt;stroke-linejoin:miter;stroke:rgb(11.764706%,24.313725%,41.176471%);stroke-opacity:1;stroke-miterlimit:10;" d="M 76.965332 -83.032227 L 183.032227 23.034668 " transform="matrix(0.32,0,0,0.32,0,0)"/>
<path style="fill:none;stroke-width:2;stroke-linecap:butt;stroke-linejoin:miter;stroke:rgb(11.764706%,24.313725%,41.176471%);stroke-opacity:1;stroke-miterlimit:10;" d="M 66.967773 -73.034668 L 173.034668 33.032227 " transform="matrix(0.32,0,0,0.32,0,0)"/>
<path style="fill:none;stroke-width:2;stroke-linecap:butt;stroke-linejoin:miter;stroke:rgb(11.764706%,24.313725%,41.176471%);stroke-opacity:1;stroke-miterlimit:10;" d="M 56.970215 -63.024902 L 163.024902 43.029785 " transform="matrix(0.32,0,0,0.32,0,0)"/>
<path style="fill:none;stroke-width:2;stroke-linecap:butt;stroke-linejoin:miter;stroke:rgb(11.764706%,24.313725%,41.176471%);stroke-opacity:1;stroke-miterlimit:10;" d="M 46.972656 -53.027344 L 153.027344 53.027344 " transform="matrix(0.32,0,0,0.32,0,0)"/>
<path style="fill:none;stroke-width:2;stroke-linecap:butt;stroke-linejoin:miter;stroke:rgb(11.764706%,24.313725%,41.176471%);stroke-opacity:1;stroke-miterlimit:10;" d="M 203.027344 -103.027344 L 96.972656 3.027344 " transform="matrix(0.32,0,0,0.32,0,0)"/>
<path style="fill:none;stroke-width:2;stroke-linecap:butt;stroke-linejoin:miter;stroke:rgb(11.764706%,24.313725%,41.176471%);stroke-opacity:1;stroke-miterlimit:10;" d="M -3.027344 -103.027344 L 103.027344 3.027344 " transform="matrix(0.32,0,0,0.32,0,0)"/>
<path style="fill:none;stroke-width:2;stroke-linecap:butt;stroke-linejoin:miter;stroke:rgb(11.764706%,24.313725%,41.176471%);stroke-opacity:1;stroke-miterlimit:10;" d="M -13.024902 -93.029785 L 93.029785 13.024902 " transform="matrix(0.32,0,0,0.32,0,0)"/>
<path style="fill:none;stroke-width:2;stroke-linecap:butt;stroke-linejoin:miter;stroke:rgb(11.764706%,24.313725%,41.176471%);stroke-opacity:1;stroke-miterlimit:10;" d="M -23.034668 -83.032227 L 83.032227 23.034668 " transform="matrix(0.32,0,0,0.32,0,0)"/>
<path style="fill:none;stroke-width:2;stroke-linecap:butt;stroke-linejoin:miter;stroke:rgb(11.764706%,24.313725%,41.176471%);stroke-opacity:1;stroke-miterlimit:10;" d="M -33.032227 -73.034668 L 73.034668 33.032227 " transform="matrix(0.32,0,0,0.32,0,0)"/>
<path style="fill:none;stroke-width:2;stroke-linecap:butt;stroke-linejoin:miter;stroke:rgb(11.764706%,24.313725%,41.176471%);stroke-opacity:1;stroke-miterlimit:10;" d="M -43.029785 -63.024902 L 63.024902 43.029785 " transform="matrix(0.32,0,0,0.32,0,0)"/>
<path style="fill:none;stroke-width:2;stroke-linecap:butt;stroke-linejoin:miter;stroke:rgb(11.764706%,24.313725%,41.176471%);stroke-opacity:1;stroke-miterlimit:10;" d="M -53.027344 -53.027344 L 53.027344 53.027344 " transform="matrix(0.32,0,0,0.32,0,0)"/>
<path style="fill:none;stroke-width:2;stroke-linecap:butt;stroke-linejoin:miter;stroke:rgb(11.764706%,24.313725%,41.176471%);stroke-opacity:1;stroke-miterlimit:10;" d="M 103.027344 -103.027344 L -3.027344 3.027344 " transform="matrix(0.32,0,0,0.32,0,0)"/>
<path style="fill:none;stroke-width:2;stroke-linecap:butt;stroke-linejoin:miter;stroke:rgb(11.764706%,24.313725%,41.176471%);stroke-opacity:1;stroke-miterlimit:10;" d="M 113.024902 -93.029785 L 6.970215 13.024902 " transform="matrix(0.32,0,0,0.32,0,0)"/>
<path style="fill:none;stroke-width:2;stroke-linecap:butt;stroke-linejoin:miter;stroke:rgb(11.764706%,24.313725%,41.176471%);stroke-opacity:1;stroke-miterlimit:10;" d="M 123.034668 -83.032227 L 16.967773 23.034668 " transform="matrix(0.32,0,0,0.32,0,0)"/>
<path style="fill:none;stroke-width:2;stroke-linecap:butt;stroke-linejoin:miter;stroke:rgb(11.764706%,24.313725%,41.176471%);stroke-opacity:1;stroke-miterlimit:10;" d="M 133.032227 -73.034668 L 26.965332 33.032227 " transform="matrix(0.32,0,0,0.32,0,0)"/>
<path style="fill:none;stroke-width:2;stroke-linecap:butt;stroke-linejoin:miter;stroke:rgb(11.764706%,24.313725%,41.176471%);stroke-opacity:1;stroke-miterlimit:10;" d="M 143.029785 -63.024902 L 36.975098 43.029785 " transform="matrix(0.32,0,0,0.32,0,0)"/>
<path style="fill:none;stroke-width:2;stroke-linecap:butt;stroke-linejoin:miter;stroke:rgb(11.764706%,24.313725%,41.176471%);stroke-opacity:1;stroke-miterlimit:10;" d="M 153.027344 -53.027344 L 46.972656 53.027344 " transform="matrix(0.32,0,0,0.32,0,0)"/>
<path style="fill:none;stroke-width:2;stroke-linecap:butt;stroke-linejoin:miter;stroke:rgb(11.764706%,24.313725%,41.176471%);stroke-opacity:1;stroke-miterlimit:10;" d="M -103.027344 -103.027344 L 3.027344 3.027344 " transform="matrix(0.32,0,0,0.32,0,0)"/>
<path style="fill:none;stroke-width:2;stroke-linecap:butt;stroke-linejoin:miter;stroke:rgb(11.764706%,24.313725%,41.176471%);stroke-opacity:1;stroke-miterlimit:10;" d="M 3.027344 -103.027344 L -103.027344 3.027344 " transform="matrix(0.32,0,0,0.32,0,0)"/>
<path style="fill:none;stroke-width:2;stroke-linecap:butt;stroke-linejoin:miter;stroke:rgb(11.764706%,24.313725%,41.176471%);stroke-opacity:1;stroke-miterlimit:10;" d="M 13.024902 -93.029785 L -93.029785 13.024902 " transform="matrix(0.32,0,0,0.32,0,0)"/>
<path style="fill:none;stroke-width:2;stroke-linecap:butt;stroke-linejoin:miter;stroke:rgb(11.764706%,24.313725%,41.176471%);stroke-opacity:1;stroke-miterlimit:10;" d="M 23.034668 -83.032227 L -83.032227 23.034668 " transform="matrix(0.32,0,0,0.32,0,0)"/>
<path style="fill:none;stroke-width:2;stroke-linecap:butt;stroke-linejoin:miter;stroke:rgb(11.764706%,24.313725%,41.176471%);stroke-opacity:1;stroke-miterlimit:10;" d="M 33.032227 -73.034668 L -73.034668 33.032227 " transform="matrix(0.32,0,0,0.32,0,0)"/>
<path style="fill:none;stroke-width:2;stroke-linecap:butt;stroke-linejoin:miter;stroke:rgb(11.764706%,24.313725%,41.176471%);stroke-opacity:1;stroke-miterlimit:10;" d="M 43.029785 -63.024902 L -63.024902 43.029785 " transform="matrix(0.32,0,0,0.32,0,0)"/>
<path style="fill:none;stroke-width:2;stroke-linecap:butt;stroke-linejoin:miter;stroke:rgb(11.764706%,24.313725%,41.176471%);stroke-opacity:1;stroke-miterlimit:10;" d="M 53.027344 -53.027344 L -53.027344 53.027344 " transform="matrix(0.32,0,0,0.32,0,0)"/>
</g>
<pattern id="pattern0" patternUnits="userSpaceOnUse" width="32" height="32" patternTransform="matrix(0.000000000000000061,-1,1,0.000000000000000061,0.3328,-45.2224)">
<use xlink:href="#surface5"/>
</pattern>
</defs>
<g id="surface1">
<rect x="0" y="0" width="32" height="32" style="fill:url(#pattern0);stroke:none;"/>
</g>
</svg>
