<?xml version="1.0" encoding="UTF-8"?>
<svg xmlns="http://www.w3.org/2000/svg" xmlns:xlink="http://www.w3.org/1999/xlink" width="32px" height="32px" viewBox="0 0 32 32" version="1.1">
<defs>
<clipPath id="clip1">
  <rect x="0" y="0" width="32" height="32"/>
</clipPath>
<g id="surface5" clip-path="url(#clip1)">
<path style="fill:none;stroke-width:4;stroke-linecap:butt;stroke-linejoin:miter;stroke:rgb(90.980392%,82.745098%,39.215686%);stroke-opacity:1;stroke-miterlimit:10;" d="M 0 100 L 100 100 " transform="matrix(0.32,0,0,0.32,0,0)"/>
<path style="fill:none;stroke-width:4;stroke-linecap:butt;stroke-linejoin:miter;stroke:rgb(90.980392%,82.745098%,39.215686%);stroke-opacity:1;stroke-miterlimit:10;" d="M 0 0 L 100 0 " transform="matrix(0.32,0,0,0.32,0,0)"/>
<path style="fill:none;stroke-width:4;stroke-linecap:butt;stroke-linejoin:miter;stroke:rgb(90.980392%,82.745098%,39.215686%);stroke-opacity:1;stroke-miterlimit:10;" d="M 0 7.141113 L 100 7.141113 " transform="matrix(0.32,0,0,0.32,0,0)"/>
<path style="fill:none;stroke-width:4;stroke-linecap:butt;stroke-linejoin:miter;stroke:rgb(90.980392%,82.745098%,39.215686%);stroke-opacity:1;stroke-miterlimit:10;" d="M 0 14.294434 L 100 14.294434 " transform="matrix(0.32,0,0,0.32,0,0)"/>
<path style="fill:none;stroke-width:4;stroke-linecap:butt;stroke-linejoin:miter;stroke:rgb(90.980392%,82.745098%,39.215686%);stroke-opacity:1;stroke-miterlimit:10;" d="M 0 21.435547 L 100 21.435547 " transform="matrix(0.32,0,0,0.32,0,0)"/>
<path style="fill:none;stroke-width:4;stroke-linecap:butt;stroke-linejoin:miter;stroke:rgb(90.980392%,82.745098%,39.215686%);stroke-opacity:1;stroke-miterlimit:10;" d="M 0 28.564453 L 100 28.564453 " transform="matrix(0.32,0,0,0.32,0,0)"/>
<path style="fill:none;stroke-width:4;stroke-linecap:butt;stroke-linejoin:miter;stroke:rgb(90.980392%,82.745098%,39.215686%);stroke-opacity:1;stroke-miterlimit:10;" d="M 0 35.705566 L 100 35.705566 " transform="matrix(0.32,0,0,0.32,0,0)"/>
<path style="fill:none;stroke-width:4;stroke-linecap:butt;stroke-linejoin:miter;stroke:rgb(90.980392%,82.745098%,39.215686%);stroke-opacity:1;stroke-miterlimit:10;" d="M 0 42.858887 L 100 42.858887 " transform="matrix(0.32,0,0,0.32,0,0)"/>
<path style="fill:none;stroke-width:4;stroke-linecap:butt;stroke-linejoin:miter;stroke:rgb(90.980392%,82.745098%,39.215686%);stroke-opacity:1;stroke-miterlimit:10;" d="M 0 50 L 100 50 " transform="matrix(0.32,0,0,0.32,0,0)"/>
<path style="fill:none;stroke-width:4;stroke-linecap:butt;stroke-linejoin:miter;stroke:rgb(90.980392%,82.745098%,39.215686%);stroke-opacity:1;stroke-miterlimit:10;" d="M 0 57.141113 L 100 57.141113 " transform="matrix(0.32,0,0,0.32,0,0)"/>
<path style="fill:none;stroke-width:4;stroke-linecap:butt;stroke-linejoin:miter;stroke:rgb(90.980392%,82.745098%,39.215686%);stroke-opacity:1;stroke-miterlimit:10;" d="M 0 64.294434 L 100 64.294434 " transform="matrix(0.32,0,0,0.32,0,0)"/>
<path style="fill:none;stroke-width:4;stroke-linecap:butt;stroke-linejoin:miter;stroke:rgb(90.980392%,82.745098%,39.215686%);stroke-opacity:1;stroke-miterlimit:10;" d="M 0 71.435547 L 100 71.435547 " transform="matrix(0.32,0,0,0.32,0,0)"/>
<path style="fill:none;stroke-width:4;stroke-linecap:butt;stroke-linejoin:miter;stroke:rgb(90.980392%,82.745098%,39.215686%);stroke-opacity:1;stroke-miterlimit:10;" d="M 0 78.564453 L 100 78.564453 " transform="matrix(0.32,0,0,0.32,0,0)"/>
<path style="fill:none;stroke-width:4;stroke-linecap:butt;stroke-linejoin:miter;stroke:rgb(90.980392%,82.745098%,39.215686%);stroke-opacity:1;stroke-miterlimit:10;" d="M 0 85.705566 L 100 85.705566 " transform="matrix(0.32,0,0,0.32,0,0)"/>
<path style="fill:none;stroke-width:4;stroke-linecap:butt;stroke-linejoin:miter;stroke:rgb(90.980392%,82.745098%,39.215686%);stroke-opacity:1;stroke-miterlimit:10;" d="M 0 92.858887 L 100 92.858887 " transform="matrix(0.32,0,0,0.32,0,0)"/>
<path style="fill:none;stroke-width:4;stroke-linecap:butt;stroke-linejoin:miter;stroke:rgb(90.980392%,82.745098%,39.215686%);stroke-opacity:1;stroke-miterlimit:10;" d="M 0 100 L 100 100 " transform="matrix(0.32,0,0,0.32,0,0)"/>
<path style="fill:none;stroke-width:4;stroke-linecap:butt;stroke-linejoin:miter;stroke:rgb(90.980392%,82.745098%,39.215686%);stroke-opacity:1;stroke-miterlimit:10;" d="M 0 0 L 100 0 " transform="matrix(0.32,0,0,0.32,0,0)"/>
</g>
<pattern id="pattern0" patternUnits="userSpaceOnUse" width="32" height="32" patternTransform="matrix(1,0,0,1,84.0704,-2.0672)">
<use xlink:href="#surface5"/>
</pattern>
</defs>
<g id="surface1">
<rect x="0" y="0" width="32" height="32" style="fill:url(#pattern0);stroke:none;"/>
</g>
</svg>
