<?xml version="1.0" encoding="UTF-8"?>
<svg xmlns="http://www.w3.org/2000/svg" xmlns:xlink="http://www.w3.org/1999/xlink" width="32px" height="32px" viewBox="0 0 32 32" version="1.1">
<defs>
<clipPath id="clip1">
  <rect x="0" y="0" width="32" height="32"/>
</clipPath>
<g id="surface5" clip-path="url(#clip1)">
<path style="fill:none;stroke-width:1.75;stroke-linecap:butt;stroke-linejoin:miter;stroke:rgb(10.196078%,10.196078%,10.196078%);stroke-opacity:1;stroke-miterlimit:10;" d="M 0 0 L 100 0 " transform="matrix(0.32,0,0,0.32,0,0)"/>
<path style="fill:none;stroke-width:1.75;stroke-linecap:butt;stroke-linejoin:miter;stroke:rgb(10.196078%,10.196078%,10.196078%);stroke-opacity:1;stroke-miterlimit:10;" d="M 0 9.997559 L 100 9.997559 " transform="matrix(0.32,0,0,0.32,0,0)"/>
<path style="fill:none;stroke-width:1.75;stroke-linecap:butt;stroke-linejoin:miter;stroke:rgb(10.196078%,10.196078%,10.196078%);stroke-opacity:1;stroke-miterlimit:10;" d="M 0 19.995117 L 100 19.995117 " transform="matrix(0.32,0,0,0.32,0,0)"/>
<path style="fill:none;stroke-width:1.75;stroke-linecap:butt;stroke-linejoin:miter;stroke:rgb(10.196078%,10.196078%,10.196078%);stroke-opacity:1;stroke-miterlimit:10;" d="M 0 30.004883 L 100 30.004883 " transform="matrix(0.32,0,0,0.32,0,0)"/>
<path style="fill:none;stroke-width:1.75;stroke-linecap:butt;stroke-linejoin:miter;stroke:rgb(10.196078%,10.196078%,10.196078%);stroke-opacity:1;stroke-miterlimit:10;" d="M 0 40.002441 L 100 40.002441 " transform="matrix(0.32,0,0,0.32,0,0)"/>
<path style="fill:none;stroke-width:1.75;stroke-linecap:butt;stroke-linejoin:miter;stroke:rgb(10.196078%,10.196078%,10.196078%);stroke-opacity:1;stroke-miterlimit:10;" d="M 0 50 L 100 50 " transform="matrix(0.32,0,0,0.32,0,0)"/>
<path style="fill:none;stroke-width:1.75;stroke-linecap:butt;stroke-linejoin:miter;stroke:rgb(10.196078%,10.196078%,10.196078%);stroke-opacity:1;stroke-miterlimit:10;" d="M 0 59.997559 L 100 59.997559 " transform="matrix(0.32,0,0,0.32,0,0)"/>
<path style="fill:none;stroke-width:1.75;stroke-linecap:butt;stroke-linejoin:miter;stroke:rgb(10.196078%,10.196078%,10.196078%);stroke-opacity:1;stroke-miterlimit:10;" d="M 0 69.995117 L 100 69.995117 " transform="matrix(0.32,0,0,0.32,0,0)"/>
<path style="fill:none;stroke-width:1.75;stroke-linecap:butt;stroke-linejoin:miter;stroke:rgb(10.196078%,10.196078%,10.196078%);stroke-opacity:1;stroke-miterlimit:10;" d="M 0 80.004883 L 100 80.004883 " transform="matrix(0.32,0,0,0.32,0,0)"/>
<path style="fill:none;stroke-width:1.75;stroke-linecap:butt;stroke-linejoin:miter;stroke:rgb(10.196078%,10.196078%,10.196078%);stroke-opacity:1;stroke-miterlimit:10;" d="M 0 90.002441 L 100 90.002441 " transform="matrix(0.32,0,0,0.32,0,0)"/>
<path style="fill:none;stroke-width:1.75;stroke-linecap:butt;stroke-linejoin:miter;stroke:rgb(10.196078%,10.196078%,10.196078%);stroke-opacity:1;stroke-miterlimit:10;" d="M 0 100 L 100 100 " transform="matrix(0.32,0,0,0.32,0,0)"/>
</g>
<pattern id="pattern0" patternUnits="userSpaceOnUse" width="32" height="32" patternTransform="matrix(1,0,0,1,11.776,17.9232)">
<use xlink:href="#surface5"/>
</pattern>
</defs>
<g id="surface1">
<rect x="0" y="0" width="32" height="32" style="fill:url(#pattern0);stroke:none;"/>
</g>
</svg>
