<?xml version="1.0" standalone="no"?>
        <!DOCTYPE svg PUBLIC "-//W3C//DTD SVG 1.1//EN" 
        "http://www.w3.org/Graphics/SVG/1.1/DTD/svg11.dtd"><svg id="changeColor" fill="#DC7633" xmlns="http://www.w3.org/2000/svg" xmlns:xlink="http://www.w3.org/1999/xlink" width="16" zoomAndPan="magnify" viewBox="0 0 375 374.9999" height="16" preserveAspectRatio="xMidYMid meet" version="1.0"><defs><path id="pathAttribute" d="M 7.09375 7.09375 L 367.84375 7.09375 L 367.84375 367.84375 L 7.09375 367.84375 Z M 7.09375 7.09375 " fill="orange"></path></defs><g><path id="pathAttribute" d="M 187.46875 7.09375 C 87.851562 7.09375 7.09375 87.851562 7.09375 187.46875 C 7.09375 287.085938 87.851562 367.84375 187.46875 367.84375 C 287.085938 367.84375 367.84375 287.085938 367.84375 187.46875 C 367.84375 87.851562 287.085938 7.09375 187.46875 7.09375 " fill-opacity="1" fill-rule="nonzero" fill="orange"></path></g><g id="inner-icon" transform="translate(85, 75)"> <svg role="img" viewBox="0 0 24 24" xmlns="http://www.w3.org/2000/svg" id="IconChangeColor" height="199.8" width="199.8"><title>Mapbox</title><path d="M12 0C5.372 0 0 5.372 0 12s5.372 12 12 12 12-5.372 12-12S18.628 0 12 0zm5.696 14.943c-4.103 4.103-11.433 2.794-11.433 2.794S4.94 10.421 9.057 6.304c2.281-2.281 6.061-2.187 8.45.189s2.471 6.168.189 8.45zm-4.319-7.91l-1.174 2.416-2.416 1.174 2.416 1.174 1.174 2.416 1.174-2.416 2.416-1.174-2.416-1.174-1.174-2.416z" id="mainIconPathAttribute" fill="orange"></path></svg> </g></svg>